G04 #@! TF.FileFunction,Copper,L2,Bot,Signal*
%FSLAX46Y46*%
G04 Gerber Fmt 4.6, Leading zero omitted, Abs format (unit mm)*
G04 Created by KiCad (PCBNEW 4.0.6) date 09/01/17 13:25:39*
%MOMM*%
%LPD*%
G01*
G04 APERTURE LIST*
%ADD10C,0.100000*%
%ADD11R,2.500000X2.500000*%
%ADD12C,2.500000*%
%ADD13C,1.600000*%
%ADD14O,1.600000X1.600000*%
%ADD15R,1.700000X1.700000*%
%ADD16O,1.700000X1.700000*%
%ADD17R,1.600000X1.600000*%
%ADD18C,2.340000*%
%ADD19C,0.685800*%
%ADD20C,0.152400*%
%ADD21C,0.254000*%
G04 APERTURE END LIST*
D10*
D11*
X221234000Y-148844000D03*
D12*
X226234000Y-148844000D03*
D11*
X210875000Y-148875000D03*
D12*
X215875000Y-148875000D03*
D13*
X151000000Y-135750000D03*
D14*
X158500000Y-135750000D03*
D13*
X199136000Y-134620000D03*
D14*
X199136000Y-127120000D03*
D15*
X219456000Y-130556000D03*
D16*
X219456000Y-128016000D03*
D13*
X171704000Y-115316000D03*
D14*
X171704000Y-125476000D03*
D13*
X151000000Y-129500000D03*
D14*
X161160000Y-129500000D03*
D13*
X165250000Y-129000000D03*
D14*
X165250000Y-139160000D03*
D13*
X144000000Y-115250000D03*
D14*
X144000000Y-125410000D03*
D13*
X144000000Y-129000000D03*
D14*
X144000000Y-139160000D03*
D13*
X192250000Y-126000000D03*
D14*
X192250000Y-115840000D03*
D13*
X192278000Y-129032000D03*
D14*
X192278000Y-139192000D03*
D13*
X171750000Y-129250000D03*
D14*
X181910000Y-129250000D03*
D13*
X186500000Y-129000000D03*
D14*
X186500000Y-139160000D03*
D13*
X225552000Y-134112000D03*
D14*
X225552000Y-123952000D03*
D17*
X205740000Y-116332000D03*
D14*
X213360000Y-134112000D03*
X205740000Y-118872000D03*
X213360000Y-131572000D03*
X205740000Y-121412000D03*
X213360000Y-129032000D03*
X205740000Y-123952000D03*
X213360000Y-126492000D03*
X205740000Y-126492000D03*
X213360000Y-123952000D03*
X205740000Y-129032000D03*
X213360000Y-121412000D03*
X205740000Y-131572000D03*
X213360000Y-118872000D03*
X205740000Y-134112000D03*
X213360000Y-116332000D03*
D17*
X186000000Y-123500000D03*
D14*
X178380000Y-115880000D03*
X186000000Y-120960000D03*
X178380000Y-118420000D03*
X186000000Y-118420000D03*
X178380000Y-120960000D03*
X186000000Y-115880000D03*
X178380000Y-123500000D03*
D17*
X165000000Y-123500000D03*
D14*
X157380000Y-115880000D03*
X165000000Y-120960000D03*
X157380000Y-118420000D03*
X165000000Y-118420000D03*
X157380000Y-120960000D03*
X165000000Y-115880000D03*
X157380000Y-123500000D03*
D11*
X196088000Y-148844000D03*
D12*
X201088000Y-148844000D03*
D11*
X163068000Y-148844000D03*
D12*
X168068000Y-148844000D03*
D11*
X152654000Y-148844000D03*
D12*
X157654000Y-148844000D03*
D18*
X219536000Y-116840000D03*
X222036000Y-119340000D03*
X224536000Y-116840000D03*
D19*
X168910000Y-117348000D03*
X167640000Y-115824000D03*
X179832000Y-142240000D03*
X183896000Y-142240000D03*
D20*
X167640000Y-115824000D02*
X168910000Y-117348000D01*
X183896000Y-142240000D02*
X179832000Y-142240000D01*
D21*
G36*
X229922000Y-155754000D02*
X140918000Y-155754000D01*
X140918000Y-147594000D01*
X150756560Y-147594000D01*
X150756560Y-150094000D01*
X150800838Y-150329317D01*
X150939910Y-150545441D01*
X151152110Y-150690431D01*
X151404000Y-150741440D01*
X153904000Y-150741440D01*
X154139317Y-150697162D01*
X154355441Y-150558090D01*
X154500431Y-150345890D01*
X154534567Y-150177320D01*
X156500285Y-150177320D01*
X156629533Y-150470123D01*
X157329806Y-150738388D01*
X158079435Y-150718250D01*
X158678467Y-150470123D01*
X158807715Y-150177320D01*
X157654000Y-149023605D01*
X156500285Y-150177320D01*
X154534567Y-150177320D01*
X154551440Y-150094000D01*
X154551440Y-148519806D01*
X155759612Y-148519806D01*
X155779750Y-149269435D01*
X156027877Y-149868467D01*
X156320680Y-149997715D01*
X157474395Y-148844000D01*
X157833605Y-148844000D01*
X158987320Y-149997715D01*
X159280123Y-149868467D01*
X159548388Y-149168194D01*
X159528250Y-148418565D01*
X159280123Y-147819533D01*
X158987320Y-147690285D01*
X157833605Y-148844000D01*
X157474395Y-148844000D01*
X156320680Y-147690285D01*
X156027877Y-147819533D01*
X155759612Y-148519806D01*
X154551440Y-148519806D01*
X154551440Y-147594000D01*
X154535763Y-147510680D01*
X156500285Y-147510680D01*
X157654000Y-148664395D01*
X158724395Y-147594000D01*
X161170560Y-147594000D01*
X161170560Y-150094000D01*
X161214838Y-150329317D01*
X161353910Y-150545441D01*
X161566110Y-150690431D01*
X161818000Y-150741440D01*
X164318000Y-150741440D01*
X164553317Y-150697162D01*
X164769441Y-150558090D01*
X164914431Y-150345890D01*
X164948567Y-150177320D01*
X166914285Y-150177320D01*
X167043533Y-150470123D01*
X167743806Y-150738388D01*
X168493435Y-150718250D01*
X169092467Y-150470123D01*
X169221715Y-150177320D01*
X168068000Y-149023605D01*
X166914285Y-150177320D01*
X164948567Y-150177320D01*
X164965440Y-150094000D01*
X164965440Y-148519806D01*
X166173612Y-148519806D01*
X166193750Y-149269435D01*
X166441877Y-149868467D01*
X166734680Y-149997715D01*
X167888395Y-148844000D01*
X168247605Y-148844000D01*
X169401320Y-149997715D01*
X169694123Y-149868467D01*
X169962388Y-149168194D01*
X169942250Y-148418565D01*
X169694123Y-147819533D01*
X169401320Y-147690285D01*
X168247605Y-148844000D01*
X167888395Y-148844000D01*
X166734680Y-147690285D01*
X166441877Y-147819533D01*
X166173612Y-148519806D01*
X164965440Y-148519806D01*
X164965440Y-147594000D01*
X164949763Y-147510680D01*
X166914285Y-147510680D01*
X168068000Y-148664395D01*
X169138395Y-147594000D01*
X194190560Y-147594000D01*
X194190560Y-150094000D01*
X194234838Y-150329317D01*
X194373910Y-150545441D01*
X194586110Y-150690431D01*
X194838000Y-150741440D01*
X197338000Y-150741440D01*
X197573317Y-150697162D01*
X197789441Y-150558090D01*
X197934431Y-150345890D01*
X197968567Y-150177320D01*
X199934285Y-150177320D01*
X200063533Y-150470123D01*
X200763806Y-150738388D01*
X201513435Y-150718250D01*
X202112467Y-150470123D01*
X202241715Y-150177320D01*
X201088000Y-149023605D01*
X199934285Y-150177320D01*
X197968567Y-150177320D01*
X197985440Y-150094000D01*
X197985440Y-148519806D01*
X199193612Y-148519806D01*
X199213750Y-149269435D01*
X199461877Y-149868467D01*
X199754680Y-149997715D01*
X200908395Y-148844000D01*
X201267605Y-148844000D01*
X202421320Y-149997715D01*
X202714123Y-149868467D01*
X202982388Y-149168194D01*
X202962250Y-148418565D01*
X202714123Y-147819533D01*
X202421320Y-147690285D01*
X201267605Y-148844000D01*
X200908395Y-148844000D01*
X199754680Y-147690285D01*
X199461877Y-147819533D01*
X199193612Y-148519806D01*
X197985440Y-148519806D01*
X197985440Y-147594000D01*
X197969763Y-147510680D01*
X199934285Y-147510680D01*
X201088000Y-148664395D01*
X202127395Y-147625000D01*
X208977560Y-147625000D01*
X208977560Y-150125000D01*
X209021838Y-150360317D01*
X209160910Y-150576441D01*
X209373110Y-150721431D01*
X209625000Y-150772440D01*
X212125000Y-150772440D01*
X212360317Y-150728162D01*
X212576441Y-150589090D01*
X212721431Y-150376890D01*
X212755567Y-150208320D01*
X214721285Y-150208320D01*
X214850533Y-150501123D01*
X215550806Y-150769388D01*
X216300435Y-150749250D01*
X216899467Y-150501123D01*
X217028715Y-150208320D01*
X215875000Y-149054605D01*
X214721285Y-150208320D01*
X212755567Y-150208320D01*
X212772440Y-150125000D01*
X212772440Y-148550806D01*
X213980612Y-148550806D01*
X214000750Y-149300435D01*
X214248877Y-149899467D01*
X214541680Y-150028715D01*
X215695395Y-148875000D01*
X216054605Y-148875000D01*
X217208320Y-150028715D01*
X217501123Y-149899467D01*
X217769388Y-149199194D01*
X217767523Y-149129750D01*
X219349000Y-149129750D01*
X219349000Y-150220310D01*
X219445673Y-150453699D01*
X219624302Y-150632327D01*
X219857691Y-150729000D01*
X220948250Y-150729000D01*
X221107000Y-150570250D01*
X221107000Y-148971000D01*
X221361000Y-148971000D01*
X221361000Y-150570250D01*
X221519750Y-150729000D01*
X222610309Y-150729000D01*
X222843698Y-150632327D01*
X223022327Y-150453699D01*
X223119000Y-150220310D01*
X223119000Y-149217305D01*
X224348674Y-149217305D01*
X224635043Y-149910372D01*
X225164839Y-150441093D01*
X225857405Y-150728672D01*
X226607305Y-150729326D01*
X227300372Y-150442957D01*
X227831093Y-149913161D01*
X228118672Y-149220595D01*
X228119326Y-148470695D01*
X227832957Y-147777628D01*
X227303161Y-147246907D01*
X226610595Y-146959328D01*
X225860695Y-146958674D01*
X225167628Y-147245043D01*
X224636907Y-147774839D01*
X224349328Y-148467405D01*
X224348674Y-149217305D01*
X223119000Y-149217305D01*
X223119000Y-149129750D01*
X222960250Y-148971000D01*
X221361000Y-148971000D01*
X221107000Y-148971000D01*
X219507750Y-148971000D01*
X219349000Y-149129750D01*
X217767523Y-149129750D01*
X217749250Y-148449565D01*
X217501123Y-147850533D01*
X217208320Y-147721285D01*
X216054605Y-148875000D01*
X215695395Y-148875000D01*
X214541680Y-147721285D01*
X214248877Y-147850533D01*
X213980612Y-148550806D01*
X212772440Y-148550806D01*
X212772440Y-147625000D01*
X212756763Y-147541680D01*
X214721285Y-147541680D01*
X215875000Y-148695395D01*
X217028715Y-147541680D01*
X216996055Y-147467690D01*
X219349000Y-147467690D01*
X219349000Y-148558250D01*
X219507750Y-148717000D01*
X221107000Y-148717000D01*
X221107000Y-147117750D01*
X221361000Y-147117750D01*
X221361000Y-148717000D01*
X222960250Y-148717000D01*
X223119000Y-148558250D01*
X223119000Y-147467690D01*
X223022327Y-147234301D01*
X222843698Y-147055673D01*
X222610309Y-146959000D01*
X221519750Y-146959000D01*
X221361000Y-147117750D01*
X221107000Y-147117750D01*
X220948250Y-146959000D01*
X219857691Y-146959000D01*
X219624302Y-147055673D01*
X219445673Y-147234301D01*
X219349000Y-147467690D01*
X216996055Y-147467690D01*
X216899467Y-147248877D01*
X216199194Y-146980612D01*
X215449565Y-147000750D01*
X214850533Y-147248877D01*
X214721285Y-147541680D01*
X212756763Y-147541680D01*
X212728162Y-147389683D01*
X212589090Y-147173559D01*
X212376890Y-147028569D01*
X212125000Y-146977560D01*
X209625000Y-146977560D01*
X209389683Y-147021838D01*
X209173559Y-147160910D01*
X209028569Y-147373110D01*
X208977560Y-147625000D01*
X202127395Y-147625000D01*
X202241715Y-147510680D01*
X202112467Y-147217877D01*
X201412194Y-146949612D01*
X200662565Y-146969750D01*
X200063533Y-147217877D01*
X199934285Y-147510680D01*
X197969763Y-147510680D01*
X197941162Y-147358683D01*
X197802090Y-147142559D01*
X197589890Y-146997569D01*
X197338000Y-146946560D01*
X194838000Y-146946560D01*
X194602683Y-146990838D01*
X194386559Y-147129910D01*
X194241569Y-147342110D01*
X194190560Y-147594000D01*
X169138395Y-147594000D01*
X169221715Y-147510680D01*
X169092467Y-147217877D01*
X168392194Y-146949612D01*
X167642565Y-146969750D01*
X167043533Y-147217877D01*
X166914285Y-147510680D01*
X164949763Y-147510680D01*
X164921162Y-147358683D01*
X164782090Y-147142559D01*
X164569890Y-146997569D01*
X164318000Y-146946560D01*
X161818000Y-146946560D01*
X161582683Y-146990838D01*
X161366559Y-147129910D01*
X161221569Y-147342110D01*
X161170560Y-147594000D01*
X158724395Y-147594000D01*
X158807715Y-147510680D01*
X158678467Y-147217877D01*
X157978194Y-146949612D01*
X157228565Y-146969750D01*
X156629533Y-147217877D01*
X156500285Y-147510680D01*
X154535763Y-147510680D01*
X154507162Y-147358683D01*
X154368090Y-147142559D01*
X154155890Y-146997569D01*
X153904000Y-146946560D01*
X151404000Y-146946560D01*
X151168683Y-146990838D01*
X150952559Y-147129910D01*
X150807569Y-147342110D01*
X150756560Y-147594000D01*
X140918000Y-147594000D01*
X140918000Y-142433663D01*
X178853931Y-142433663D01*
X179002493Y-142793212D01*
X179277341Y-143068540D01*
X179636630Y-143217730D01*
X180025663Y-143218069D01*
X180385212Y-143069507D01*
X180503726Y-142951200D01*
X183224206Y-142951200D01*
X183341341Y-143068540D01*
X183700630Y-143217730D01*
X184089663Y-143218069D01*
X184449212Y-143069507D01*
X184724540Y-142794659D01*
X184873730Y-142435370D01*
X184874069Y-142046337D01*
X184725507Y-141686788D01*
X184450659Y-141411460D01*
X184091370Y-141262270D01*
X183702337Y-141261931D01*
X183342788Y-141410493D01*
X183224274Y-141528800D01*
X180503794Y-141528800D01*
X180386659Y-141411460D01*
X180027370Y-141262270D01*
X179638337Y-141261931D01*
X179278788Y-141410493D01*
X179003460Y-141685341D01*
X178854270Y-142044630D01*
X178853931Y-142433663D01*
X140918000Y-142433663D01*
X140918000Y-139509041D01*
X142608086Y-139509041D01*
X142847611Y-140015134D01*
X143262577Y-140391041D01*
X143650961Y-140551904D01*
X143873000Y-140429915D01*
X143873000Y-139287000D01*
X144127000Y-139287000D01*
X144127000Y-140429915D01*
X144349039Y-140551904D01*
X144737423Y-140391041D01*
X145152389Y-140015134D01*
X145391914Y-139509041D01*
X163858086Y-139509041D01*
X164097611Y-140015134D01*
X164512577Y-140391041D01*
X164900961Y-140551904D01*
X165123000Y-140429915D01*
X165123000Y-139287000D01*
X165377000Y-139287000D01*
X165377000Y-140429915D01*
X165599039Y-140551904D01*
X165987423Y-140391041D01*
X166402389Y-140015134D01*
X166641914Y-139509041D01*
X185108086Y-139509041D01*
X185347611Y-140015134D01*
X185762577Y-140391041D01*
X186150961Y-140551904D01*
X186373000Y-140429915D01*
X186373000Y-139287000D01*
X186627000Y-139287000D01*
X186627000Y-140429915D01*
X186849039Y-140551904D01*
X187237423Y-140391041D01*
X187652389Y-140015134D01*
X187891914Y-139509041D01*
X187770629Y-139287000D01*
X186627000Y-139287000D01*
X186373000Y-139287000D01*
X185229371Y-139287000D01*
X185108086Y-139509041D01*
X166641914Y-139509041D01*
X166520629Y-139287000D01*
X165377000Y-139287000D01*
X165123000Y-139287000D01*
X163979371Y-139287000D01*
X163858086Y-139509041D01*
X145391914Y-139509041D01*
X145270629Y-139287000D01*
X144127000Y-139287000D01*
X143873000Y-139287000D01*
X142729371Y-139287000D01*
X142608086Y-139509041D01*
X140918000Y-139509041D01*
X140918000Y-139163887D01*
X190843000Y-139163887D01*
X190843000Y-139220113D01*
X190952233Y-139769264D01*
X191263302Y-140234811D01*
X191728849Y-140545880D01*
X192278000Y-140655113D01*
X192827151Y-140545880D01*
X193292698Y-140234811D01*
X193603767Y-139769264D01*
X193713000Y-139220113D01*
X193713000Y-139163887D01*
X193603767Y-138614736D01*
X193292698Y-138149189D01*
X192827151Y-137838120D01*
X192278000Y-137728887D01*
X191728849Y-137838120D01*
X191263302Y-138149189D01*
X190952233Y-138614736D01*
X190843000Y-139163887D01*
X140918000Y-139163887D01*
X140918000Y-138810959D01*
X142608086Y-138810959D01*
X142729371Y-139033000D01*
X143873000Y-139033000D01*
X143873000Y-137890085D01*
X144127000Y-137890085D01*
X144127000Y-139033000D01*
X145270629Y-139033000D01*
X145391914Y-138810959D01*
X163858086Y-138810959D01*
X163979371Y-139033000D01*
X165123000Y-139033000D01*
X165123000Y-137890085D01*
X165377000Y-137890085D01*
X165377000Y-139033000D01*
X166520629Y-139033000D01*
X166641914Y-138810959D01*
X185108086Y-138810959D01*
X185229371Y-139033000D01*
X186373000Y-139033000D01*
X186373000Y-137890085D01*
X186627000Y-137890085D01*
X186627000Y-139033000D01*
X187770629Y-139033000D01*
X187891914Y-138810959D01*
X187652389Y-138304866D01*
X187237423Y-137928959D01*
X186849039Y-137768096D01*
X186627000Y-137890085D01*
X186373000Y-137890085D01*
X186150961Y-137768096D01*
X185762577Y-137928959D01*
X185347611Y-138304866D01*
X185108086Y-138810959D01*
X166641914Y-138810959D01*
X166402389Y-138304866D01*
X165987423Y-137928959D01*
X165599039Y-137768096D01*
X165377000Y-137890085D01*
X165123000Y-137890085D01*
X164900961Y-137768096D01*
X164512577Y-137928959D01*
X164097611Y-138304866D01*
X163858086Y-138810959D01*
X145391914Y-138810959D01*
X145152389Y-138304866D01*
X144737423Y-137928959D01*
X144349039Y-137768096D01*
X144127000Y-137890085D01*
X143873000Y-137890085D01*
X143650961Y-137768096D01*
X143262577Y-137928959D01*
X142847611Y-138304866D01*
X142608086Y-138810959D01*
X140918000Y-138810959D01*
X140918000Y-136034187D01*
X149564752Y-136034187D01*
X149782757Y-136561800D01*
X150186077Y-136965824D01*
X150713309Y-137184750D01*
X151284187Y-137185248D01*
X151811800Y-136967243D01*
X152215824Y-136563923D01*
X152434750Y-136036691D01*
X152435000Y-135750000D01*
X157036887Y-135750000D01*
X157146120Y-136299151D01*
X157457189Y-136764698D01*
X157922736Y-137075767D01*
X158471887Y-137185000D01*
X158528113Y-137185000D01*
X159077264Y-137075767D01*
X159542811Y-136764698D01*
X159853880Y-136299151D01*
X159963113Y-135750000D01*
X159853880Y-135200849D01*
X159655657Y-134904187D01*
X197700752Y-134904187D01*
X197918757Y-135431800D01*
X198322077Y-135835824D01*
X198849309Y-136054750D01*
X199420187Y-136055248D01*
X199947800Y-135837243D01*
X200351824Y-135433923D01*
X200570750Y-134906691D01*
X200571138Y-134461039D01*
X204348096Y-134461039D01*
X204508959Y-134849423D01*
X204884866Y-135264389D01*
X205390959Y-135503914D01*
X205613000Y-135382629D01*
X205613000Y-134239000D01*
X205867000Y-134239000D01*
X205867000Y-135382629D01*
X206089041Y-135503914D01*
X206595134Y-135264389D01*
X206971041Y-134849423D01*
X207131904Y-134461039D01*
X207009915Y-134239000D01*
X205867000Y-134239000D01*
X205613000Y-134239000D01*
X204470085Y-134239000D01*
X204348096Y-134461039D01*
X200571138Y-134461039D01*
X200571248Y-134335813D01*
X200353243Y-133808200D01*
X199949923Y-133404176D01*
X199422691Y-133185250D01*
X198851813Y-133184752D01*
X198324200Y-133402757D01*
X197920176Y-133806077D01*
X197701250Y-134333309D01*
X197700752Y-134904187D01*
X159655657Y-134904187D01*
X159542811Y-134735302D01*
X159077264Y-134424233D01*
X158528113Y-134315000D01*
X158471887Y-134315000D01*
X157922736Y-134424233D01*
X157457189Y-134735302D01*
X157146120Y-135200849D01*
X157036887Y-135750000D01*
X152435000Y-135750000D01*
X152435248Y-135465813D01*
X152217243Y-134938200D01*
X151813923Y-134534176D01*
X151286691Y-134315250D01*
X150715813Y-134314752D01*
X150188200Y-134532757D01*
X149784176Y-134936077D01*
X149565250Y-135463309D01*
X149564752Y-136034187D01*
X140918000Y-136034187D01*
X140918000Y-129284187D01*
X142564752Y-129284187D01*
X142782757Y-129811800D01*
X143186077Y-130215824D01*
X143713309Y-130434750D01*
X144284187Y-130435248D01*
X144811800Y-130217243D01*
X145215824Y-129813923D01*
X145228171Y-129784187D01*
X149564752Y-129784187D01*
X149782757Y-130311800D01*
X150186077Y-130715824D01*
X150713309Y-130934750D01*
X151284187Y-130935248D01*
X151811800Y-130717243D01*
X152215824Y-130313923D01*
X152434750Y-129786691D01*
X152435000Y-129500000D01*
X159696887Y-129500000D01*
X159806120Y-130049151D01*
X160117189Y-130514698D01*
X160582736Y-130825767D01*
X161131887Y-130935000D01*
X161188113Y-130935000D01*
X161737264Y-130825767D01*
X162202811Y-130514698D01*
X162513880Y-130049151D01*
X162623113Y-129500000D01*
X162580186Y-129284187D01*
X163814752Y-129284187D01*
X164032757Y-129811800D01*
X164436077Y-130215824D01*
X164963309Y-130434750D01*
X165534187Y-130435248D01*
X166061800Y-130217243D01*
X166465824Y-129813923D01*
X166581980Y-129534187D01*
X170314752Y-129534187D01*
X170532757Y-130061800D01*
X170936077Y-130465824D01*
X171463309Y-130684750D01*
X172034187Y-130685248D01*
X172561800Y-130467243D01*
X172965824Y-130063923D01*
X173184750Y-129536691D01*
X173185000Y-129250000D01*
X180446887Y-129250000D01*
X180556120Y-129799151D01*
X180867189Y-130264698D01*
X181332736Y-130575767D01*
X181881887Y-130685000D01*
X181938113Y-130685000D01*
X182487264Y-130575767D01*
X182952811Y-130264698D01*
X183263880Y-129799151D01*
X183366312Y-129284187D01*
X185064752Y-129284187D01*
X185282757Y-129811800D01*
X185686077Y-130215824D01*
X186213309Y-130434750D01*
X186784187Y-130435248D01*
X187311800Y-130217243D01*
X187715824Y-129813923D01*
X187922502Y-129316187D01*
X190842752Y-129316187D01*
X191060757Y-129843800D01*
X191464077Y-130247824D01*
X191991309Y-130466750D01*
X192562187Y-130467248D01*
X193089800Y-130249243D01*
X193493824Y-129845923D01*
X193712750Y-129318691D01*
X193713000Y-129032000D01*
X204276887Y-129032000D01*
X204386120Y-129581151D01*
X204697189Y-130046698D01*
X205079275Y-130302000D01*
X204697189Y-130557302D01*
X204386120Y-131022849D01*
X204276887Y-131572000D01*
X204386120Y-132121151D01*
X204697189Y-132586698D01*
X205101703Y-132856986D01*
X204884866Y-132959611D01*
X204508959Y-133374577D01*
X204348096Y-133762961D01*
X204470085Y-133985000D01*
X205613000Y-133985000D01*
X205613000Y-133965000D01*
X205867000Y-133965000D01*
X205867000Y-133985000D01*
X207009915Y-133985000D01*
X207131904Y-133762961D01*
X206971041Y-133374577D01*
X206595134Y-132959611D01*
X206378297Y-132856986D01*
X206782811Y-132586698D01*
X207093880Y-132121151D01*
X207203113Y-131572000D01*
X207093880Y-131022849D01*
X206782811Y-130557302D01*
X206400725Y-130302000D01*
X206782811Y-130046698D01*
X207093880Y-129581151D01*
X207203113Y-129032000D01*
X207093880Y-128482849D01*
X206782811Y-128017302D01*
X206378297Y-127747014D01*
X206595134Y-127644389D01*
X206971041Y-127229423D01*
X207131904Y-126841039D01*
X207009915Y-126619000D01*
X205867000Y-126619000D01*
X205867000Y-126639000D01*
X205613000Y-126639000D01*
X205613000Y-126619000D01*
X204470085Y-126619000D01*
X204348096Y-126841039D01*
X204508959Y-127229423D01*
X204884866Y-127644389D01*
X205101703Y-127747014D01*
X204697189Y-128017302D01*
X204386120Y-128482849D01*
X204276887Y-129032000D01*
X193713000Y-129032000D01*
X193713248Y-128747813D01*
X193495243Y-128220200D01*
X193091923Y-127816176D01*
X192564691Y-127597250D01*
X191993813Y-127596752D01*
X191466200Y-127814757D01*
X191062176Y-128218077D01*
X190843250Y-128745309D01*
X190842752Y-129316187D01*
X187922502Y-129316187D01*
X187934750Y-129286691D01*
X187935248Y-128715813D01*
X187717243Y-128188200D01*
X187313923Y-127784176D01*
X186786691Y-127565250D01*
X186215813Y-127564752D01*
X185688200Y-127782757D01*
X185284176Y-128186077D01*
X185065250Y-128713309D01*
X185064752Y-129284187D01*
X183366312Y-129284187D01*
X183373113Y-129250000D01*
X183263880Y-128700849D01*
X182952811Y-128235302D01*
X182487264Y-127924233D01*
X181938113Y-127815000D01*
X181881887Y-127815000D01*
X181332736Y-127924233D01*
X180867189Y-128235302D01*
X180556120Y-128700849D01*
X180446887Y-129250000D01*
X173185000Y-129250000D01*
X173185248Y-128965813D01*
X172967243Y-128438200D01*
X172563923Y-128034176D01*
X172036691Y-127815250D01*
X171465813Y-127814752D01*
X170938200Y-128032757D01*
X170534176Y-128436077D01*
X170315250Y-128963309D01*
X170314752Y-129534187D01*
X166581980Y-129534187D01*
X166684750Y-129286691D01*
X166685248Y-128715813D01*
X166467243Y-128188200D01*
X166063923Y-127784176D01*
X165536691Y-127565250D01*
X164965813Y-127564752D01*
X164438200Y-127782757D01*
X164034176Y-128186077D01*
X163815250Y-128713309D01*
X163814752Y-129284187D01*
X162580186Y-129284187D01*
X162513880Y-128950849D01*
X162202811Y-128485302D01*
X161737264Y-128174233D01*
X161188113Y-128065000D01*
X161131887Y-128065000D01*
X160582736Y-128174233D01*
X160117189Y-128485302D01*
X159806120Y-128950849D01*
X159696887Y-129500000D01*
X152435000Y-129500000D01*
X152435248Y-129215813D01*
X152217243Y-128688200D01*
X151813923Y-128284176D01*
X151286691Y-128065250D01*
X150715813Y-128064752D01*
X150188200Y-128282757D01*
X149784176Y-128686077D01*
X149565250Y-129213309D01*
X149564752Y-129784187D01*
X145228171Y-129784187D01*
X145434750Y-129286691D01*
X145435248Y-128715813D01*
X145217243Y-128188200D01*
X144813923Y-127784176D01*
X144286691Y-127565250D01*
X143715813Y-127564752D01*
X143188200Y-127782757D01*
X142784176Y-128186077D01*
X142565250Y-128713309D01*
X142564752Y-129284187D01*
X140918000Y-129284187D01*
X140918000Y-125381887D01*
X142565000Y-125381887D01*
X142565000Y-125438113D01*
X142674233Y-125987264D01*
X142985302Y-126452811D01*
X143450849Y-126763880D01*
X144000000Y-126873113D01*
X144549151Y-126763880D01*
X145014698Y-126452811D01*
X145325767Y-125987264D01*
X145433055Y-125447887D01*
X170269000Y-125447887D01*
X170269000Y-125504113D01*
X170378233Y-126053264D01*
X170689302Y-126518811D01*
X171154849Y-126829880D01*
X171704000Y-126939113D01*
X172253151Y-126829880D01*
X172718698Y-126518811D01*
X172875468Y-126284187D01*
X190814752Y-126284187D01*
X191032757Y-126811800D01*
X191436077Y-127215824D01*
X191963309Y-127434750D01*
X192534187Y-127435248D01*
X193061800Y-127217243D01*
X193187374Y-127091887D01*
X197701000Y-127091887D01*
X197701000Y-127148113D01*
X197810233Y-127697264D01*
X198121302Y-128162811D01*
X198586849Y-128473880D01*
X199136000Y-128583113D01*
X199685151Y-128473880D01*
X200150698Y-128162811D01*
X200461767Y-127697264D01*
X200571000Y-127148113D01*
X200571000Y-127091887D01*
X200461767Y-126542736D01*
X200150698Y-126077189D01*
X199685151Y-125766120D01*
X199136000Y-125656887D01*
X198586849Y-125766120D01*
X198121302Y-126077189D01*
X197810233Y-126542736D01*
X197701000Y-127091887D01*
X193187374Y-127091887D01*
X193465824Y-126813923D01*
X193684750Y-126286691D01*
X193685248Y-125715813D01*
X193467243Y-125188200D01*
X193063923Y-124784176D01*
X192536691Y-124565250D01*
X191965813Y-124564752D01*
X191438200Y-124782757D01*
X191034176Y-125186077D01*
X190815250Y-125713309D01*
X190814752Y-126284187D01*
X172875468Y-126284187D01*
X173029767Y-126053264D01*
X173139000Y-125504113D01*
X173139000Y-125447887D01*
X173029767Y-124898736D01*
X172718698Y-124433189D01*
X172253151Y-124122120D01*
X171704000Y-124012887D01*
X171154849Y-124122120D01*
X170689302Y-124433189D01*
X170378233Y-124898736D01*
X170269000Y-125447887D01*
X145433055Y-125447887D01*
X145435000Y-125438113D01*
X145435000Y-125381887D01*
X145325767Y-124832736D01*
X145014698Y-124367189D01*
X144549151Y-124056120D01*
X144000000Y-123946887D01*
X143450849Y-124056120D01*
X142985302Y-124367189D01*
X142674233Y-124832736D01*
X142565000Y-125381887D01*
X140918000Y-125381887D01*
X140918000Y-115534187D01*
X142564752Y-115534187D01*
X142782757Y-116061800D01*
X143186077Y-116465824D01*
X143713309Y-116684750D01*
X144284187Y-116685248D01*
X144811800Y-116467243D01*
X145215824Y-116063923D01*
X145292195Y-115880000D01*
X155916887Y-115880000D01*
X156026120Y-116429151D01*
X156337189Y-116894698D01*
X156719275Y-117150000D01*
X156337189Y-117405302D01*
X156026120Y-117870849D01*
X155916887Y-118420000D01*
X156026120Y-118969151D01*
X156337189Y-119434698D01*
X156719275Y-119690000D01*
X156337189Y-119945302D01*
X156026120Y-120410849D01*
X155916887Y-120960000D01*
X156026120Y-121509151D01*
X156337189Y-121974698D01*
X156719275Y-122230000D01*
X156337189Y-122485302D01*
X156026120Y-122950849D01*
X155916887Y-123500000D01*
X156026120Y-124049151D01*
X156337189Y-124514698D01*
X156802736Y-124825767D01*
X157351887Y-124935000D01*
X157408113Y-124935000D01*
X157957264Y-124825767D01*
X158422811Y-124514698D01*
X158733880Y-124049151D01*
X158843113Y-123500000D01*
X158733880Y-122950849D01*
X158422811Y-122485302D01*
X158040725Y-122230000D01*
X158422811Y-121974698D01*
X158733880Y-121509151D01*
X158843113Y-120960000D01*
X158733880Y-120410849D01*
X158422811Y-119945302D01*
X158040725Y-119690000D01*
X158422811Y-119434698D01*
X158733880Y-118969151D01*
X158843113Y-118420000D01*
X158733880Y-117870849D01*
X158422811Y-117405302D01*
X158040725Y-117150000D01*
X158422811Y-116894698D01*
X158733880Y-116429151D01*
X158843113Y-115880000D01*
X163536887Y-115880000D01*
X163646120Y-116429151D01*
X163957189Y-116894698D01*
X164339275Y-117150000D01*
X163957189Y-117405302D01*
X163646120Y-117870849D01*
X163536887Y-118420000D01*
X163646120Y-118969151D01*
X163957189Y-119434698D01*
X164339275Y-119690000D01*
X163957189Y-119945302D01*
X163646120Y-120410849D01*
X163536887Y-120960000D01*
X163646120Y-121509151D01*
X163957189Y-121974698D01*
X164101465Y-122071101D01*
X163964683Y-122096838D01*
X163748559Y-122235910D01*
X163603569Y-122448110D01*
X163552560Y-122700000D01*
X163552560Y-124300000D01*
X163596838Y-124535317D01*
X163735910Y-124751441D01*
X163948110Y-124896431D01*
X164200000Y-124947440D01*
X165800000Y-124947440D01*
X166035317Y-124903162D01*
X166251441Y-124764090D01*
X166396431Y-124551890D01*
X166447440Y-124300000D01*
X166447440Y-122700000D01*
X166403162Y-122464683D01*
X166264090Y-122248559D01*
X166051890Y-122103569D01*
X165896911Y-122072185D01*
X166042811Y-121974698D01*
X166353880Y-121509151D01*
X166463113Y-120960000D01*
X166353880Y-120410849D01*
X166042811Y-119945302D01*
X165660725Y-119690000D01*
X166042811Y-119434698D01*
X166353880Y-118969151D01*
X166463113Y-118420000D01*
X166353880Y-117870849D01*
X166042811Y-117405302D01*
X165660725Y-117150000D01*
X166042811Y-116894698D01*
X166353880Y-116429151D01*
X166435730Y-116017663D01*
X166661931Y-116017663D01*
X166810493Y-116377212D01*
X167085341Y-116652540D01*
X167444630Y-116801730D01*
X167529061Y-116801804D01*
X167932154Y-117285515D01*
X167931931Y-117541663D01*
X168080493Y-117901212D01*
X168355341Y-118176540D01*
X168714630Y-118325730D01*
X169103663Y-118326069D01*
X169463212Y-118177507D01*
X169738540Y-117902659D01*
X169887730Y-117543370D01*
X169888069Y-117154337D01*
X169739507Y-116794788D01*
X169464659Y-116519460D01*
X169105370Y-116370270D01*
X169020939Y-116370196D01*
X168617846Y-115886485D01*
X168618069Y-115630337D01*
X168605612Y-115600187D01*
X170268752Y-115600187D01*
X170486757Y-116127800D01*
X170890077Y-116531824D01*
X171417309Y-116750750D01*
X171988187Y-116751248D01*
X172515800Y-116533243D01*
X172919824Y-116129923D01*
X173023601Y-115880000D01*
X176916887Y-115880000D01*
X177026120Y-116429151D01*
X177337189Y-116894698D01*
X177719275Y-117150000D01*
X177337189Y-117405302D01*
X177026120Y-117870849D01*
X176916887Y-118420000D01*
X177026120Y-118969151D01*
X177337189Y-119434698D01*
X177719275Y-119690000D01*
X177337189Y-119945302D01*
X177026120Y-120410849D01*
X176916887Y-120960000D01*
X177026120Y-121509151D01*
X177337189Y-121974698D01*
X177719275Y-122230000D01*
X177337189Y-122485302D01*
X177026120Y-122950849D01*
X176916887Y-123500000D01*
X177026120Y-124049151D01*
X177337189Y-124514698D01*
X177802736Y-124825767D01*
X178351887Y-124935000D01*
X178408113Y-124935000D01*
X178957264Y-124825767D01*
X179422811Y-124514698D01*
X179733880Y-124049151D01*
X179843113Y-123500000D01*
X179733880Y-122950849D01*
X179422811Y-122485302D01*
X179040725Y-122230000D01*
X179422811Y-121974698D01*
X179733880Y-121509151D01*
X179843113Y-120960000D01*
X179733880Y-120410849D01*
X179422811Y-119945302D01*
X179040725Y-119690000D01*
X179422811Y-119434698D01*
X179733880Y-118969151D01*
X179843113Y-118420000D01*
X179733880Y-117870849D01*
X179422811Y-117405302D01*
X179040725Y-117150000D01*
X179422811Y-116894698D01*
X179733880Y-116429151D01*
X179843113Y-115880000D01*
X184536887Y-115880000D01*
X184646120Y-116429151D01*
X184957189Y-116894698D01*
X185339275Y-117150000D01*
X184957189Y-117405302D01*
X184646120Y-117870849D01*
X184536887Y-118420000D01*
X184646120Y-118969151D01*
X184957189Y-119434698D01*
X185339275Y-119690000D01*
X184957189Y-119945302D01*
X184646120Y-120410849D01*
X184536887Y-120960000D01*
X184646120Y-121509151D01*
X184957189Y-121974698D01*
X185101465Y-122071101D01*
X184964683Y-122096838D01*
X184748559Y-122235910D01*
X184603569Y-122448110D01*
X184552560Y-122700000D01*
X184552560Y-124300000D01*
X184596838Y-124535317D01*
X184735910Y-124751441D01*
X184948110Y-124896431D01*
X185200000Y-124947440D01*
X186800000Y-124947440D01*
X187035317Y-124903162D01*
X187251441Y-124764090D01*
X187396431Y-124551890D01*
X187447440Y-124300000D01*
X187447440Y-122700000D01*
X187403162Y-122464683D01*
X187264090Y-122248559D01*
X187051890Y-122103569D01*
X186896911Y-122072185D01*
X187042811Y-121974698D01*
X187353880Y-121509151D01*
X187463113Y-120960000D01*
X187353880Y-120410849D01*
X187042811Y-119945302D01*
X186660725Y-119690000D01*
X187042811Y-119434698D01*
X187353880Y-118969151D01*
X187373204Y-118872000D01*
X204276887Y-118872000D01*
X204386120Y-119421151D01*
X204697189Y-119886698D01*
X205079275Y-120142000D01*
X204697189Y-120397302D01*
X204386120Y-120862849D01*
X204276887Y-121412000D01*
X204386120Y-121961151D01*
X204697189Y-122426698D01*
X205079275Y-122682000D01*
X204697189Y-122937302D01*
X204386120Y-123402849D01*
X204276887Y-123952000D01*
X204386120Y-124501151D01*
X204697189Y-124966698D01*
X205101703Y-125236986D01*
X204884866Y-125339611D01*
X204508959Y-125754577D01*
X204348096Y-126142961D01*
X204470085Y-126365000D01*
X205613000Y-126365000D01*
X205613000Y-126345000D01*
X205867000Y-126345000D01*
X205867000Y-126365000D01*
X207009915Y-126365000D01*
X207131904Y-126142961D01*
X206971041Y-125754577D01*
X206595134Y-125339611D01*
X206378297Y-125236986D01*
X206782811Y-124966698D01*
X207093880Y-124501151D01*
X207203113Y-123952000D01*
X207093880Y-123402849D01*
X206782811Y-122937302D01*
X206400725Y-122682000D01*
X206782811Y-122426698D01*
X207093880Y-121961151D01*
X207203113Y-121412000D01*
X207093880Y-120862849D01*
X206782811Y-120397302D01*
X206400725Y-120142000D01*
X206782811Y-119886698D01*
X207093880Y-119421151D01*
X207203113Y-118872000D01*
X207093880Y-118322849D01*
X206782811Y-117857302D01*
X206638535Y-117760899D01*
X206775317Y-117735162D01*
X206991441Y-117596090D01*
X207136431Y-117383890D01*
X207187440Y-117132000D01*
X207187440Y-116332000D01*
X211896887Y-116332000D01*
X212006120Y-116881151D01*
X212317189Y-117346698D01*
X212699275Y-117602000D01*
X212317189Y-117857302D01*
X212006120Y-118322849D01*
X211896887Y-118872000D01*
X212006120Y-119421151D01*
X212317189Y-119886698D01*
X212699275Y-120142000D01*
X212317189Y-120397302D01*
X212006120Y-120862849D01*
X211896887Y-121412000D01*
X212006120Y-121961151D01*
X212317189Y-122426698D01*
X212699275Y-122682000D01*
X212317189Y-122937302D01*
X212006120Y-123402849D01*
X211896887Y-123952000D01*
X212006120Y-124501151D01*
X212317189Y-124966698D01*
X212699275Y-125222000D01*
X212317189Y-125477302D01*
X212006120Y-125942849D01*
X211896887Y-126492000D01*
X212006120Y-127041151D01*
X212317189Y-127506698D01*
X212699275Y-127762000D01*
X212317189Y-128017302D01*
X212006120Y-128482849D01*
X211896887Y-129032000D01*
X212006120Y-129581151D01*
X212317189Y-130046698D01*
X212699275Y-130302000D01*
X212317189Y-130557302D01*
X212006120Y-131022849D01*
X211896887Y-131572000D01*
X212006120Y-132121151D01*
X212317189Y-132586698D01*
X212699275Y-132842000D01*
X212317189Y-133097302D01*
X212006120Y-133562849D01*
X211896887Y-134112000D01*
X212006120Y-134661151D01*
X212317189Y-135126698D01*
X212782736Y-135437767D01*
X213331887Y-135547000D01*
X213388113Y-135547000D01*
X213937264Y-135437767D01*
X214402811Y-135126698D01*
X214407456Y-135119745D01*
X224723861Y-135119745D01*
X224797995Y-135365864D01*
X225335223Y-135558965D01*
X225905454Y-135531778D01*
X226306005Y-135365864D01*
X226380139Y-135119745D01*
X225552000Y-134291605D01*
X224723861Y-135119745D01*
X214407456Y-135119745D01*
X214713880Y-134661151D01*
X214823113Y-134112000D01*
X214779994Y-133895223D01*
X224105035Y-133895223D01*
X224132222Y-134465454D01*
X224298136Y-134866005D01*
X224544255Y-134940139D01*
X225372395Y-134112000D01*
X225731605Y-134112000D01*
X226559745Y-134940139D01*
X226805864Y-134866005D01*
X226998965Y-134328777D01*
X226971778Y-133758546D01*
X226805864Y-133357995D01*
X226559745Y-133283861D01*
X225731605Y-134112000D01*
X225372395Y-134112000D01*
X224544255Y-133283861D01*
X224298136Y-133357995D01*
X224105035Y-133895223D01*
X214779994Y-133895223D01*
X214713880Y-133562849D01*
X214407457Y-133104255D01*
X224723861Y-133104255D01*
X225552000Y-133932395D01*
X226380139Y-133104255D01*
X226306005Y-132858136D01*
X225768777Y-132665035D01*
X225198546Y-132692222D01*
X224797995Y-132858136D01*
X224723861Y-133104255D01*
X214407457Y-133104255D01*
X214402811Y-133097302D01*
X214020725Y-132842000D01*
X214402811Y-132586698D01*
X214713880Y-132121151D01*
X214823113Y-131572000D01*
X214713880Y-131022849D01*
X214402811Y-130557302D01*
X214020725Y-130302000D01*
X214402811Y-130046698D01*
X214630458Y-129706000D01*
X217958560Y-129706000D01*
X217958560Y-131406000D01*
X218002838Y-131641317D01*
X218141910Y-131857441D01*
X218354110Y-132002431D01*
X218606000Y-132053440D01*
X220306000Y-132053440D01*
X220541317Y-132009162D01*
X220757441Y-131870090D01*
X220902431Y-131657890D01*
X220953440Y-131406000D01*
X220953440Y-129706000D01*
X220909162Y-129470683D01*
X220770090Y-129254559D01*
X220557890Y-129109569D01*
X220501546Y-129098159D01*
X220506054Y-129095147D01*
X220827961Y-128613378D01*
X220941000Y-128045093D01*
X220941000Y-127986907D01*
X220827961Y-127418622D01*
X220506054Y-126936853D01*
X220024285Y-126614946D01*
X219456000Y-126501907D01*
X218887715Y-126614946D01*
X218405946Y-126936853D01*
X218084039Y-127418622D01*
X217971000Y-127986907D01*
X217971000Y-128045093D01*
X218084039Y-128613378D01*
X218405946Y-129095147D01*
X218407179Y-129095971D01*
X218370683Y-129102838D01*
X218154559Y-129241910D01*
X218009569Y-129454110D01*
X217958560Y-129706000D01*
X214630458Y-129706000D01*
X214713880Y-129581151D01*
X214823113Y-129032000D01*
X214713880Y-128482849D01*
X214402811Y-128017302D01*
X214020725Y-127762000D01*
X214402811Y-127506698D01*
X214713880Y-127041151D01*
X214823113Y-126492000D01*
X214713880Y-125942849D01*
X214402811Y-125477302D01*
X214020725Y-125222000D01*
X214402811Y-124966698D01*
X214713880Y-124501151D01*
X214823113Y-123952000D01*
X214817521Y-123923887D01*
X224117000Y-123923887D01*
X224117000Y-123980113D01*
X224226233Y-124529264D01*
X224537302Y-124994811D01*
X225002849Y-125305880D01*
X225552000Y-125415113D01*
X226101151Y-125305880D01*
X226566698Y-124994811D01*
X226877767Y-124529264D01*
X226987000Y-123980113D01*
X226987000Y-123923887D01*
X226877767Y-123374736D01*
X226566698Y-122909189D01*
X226101151Y-122598120D01*
X225552000Y-122488887D01*
X225002849Y-122598120D01*
X224537302Y-122909189D01*
X224226233Y-123374736D01*
X224117000Y-123923887D01*
X214817521Y-123923887D01*
X214713880Y-123402849D01*
X214402811Y-122937302D01*
X214020725Y-122682000D01*
X214402811Y-122426698D01*
X214713880Y-121961151D01*
X214823113Y-121412000D01*
X214713880Y-120862849D01*
X214402811Y-120397302D01*
X214020725Y-120142000D01*
X214402811Y-119886698D01*
X214713880Y-119421151D01*
X214823113Y-118872000D01*
X214713880Y-118322849D01*
X214402811Y-117857302D01*
X214020725Y-117602000D01*
X214402811Y-117346698D01*
X214502527Y-117197462D01*
X217730687Y-117197462D01*
X218004903Y-117861115D01*
X218512215Y-118369312D01*
X219175388Y-118644686D01*
X219893462Y-118645313D01*
X220468735Y-118407615D01*
X220231314Y-118979388D01*
X220230687Y-119697462D01*
X220504903Y-120361115D01*
X221012215Y-120869312D01*
X221675388Y-121144686D01*
X222393462Y-121145313D01*
X223057115Y-120871097D01*
X223565312Y-120363785D01*
X223840686Y-119700612D01*
X223841313Y-118982538D01*
X223608240Y-118418459D01*
X224230890Y-118654894D01*
X224948646Y-118633504D01*
X225512414Y-118399984D01*
X225631880Y-118115486D01*
X224536000Y-117019605D01*
X224521858Y-117033748D01*
X224342252Y-116854142D01*
X224356395Y-116840000D01*
X224715605Y-116840000D01*
X225811486Y-117935880D01*
X226095984Y-117816414D01*
X226350894Y-117145110D01*
X226329504Y-116427354D01*
X226095984Y-115863586D01*
X225811486Y-115744120D01*
X224715605Y-116840000D01*
X224356395Y-116840000D01*
X223260514Y-115744120D01*
X222976016Y-115863586D01*
X222721106Y-116534890D01*
X222742496Y-117252646D01*
X222955751Y-117767489D01*
X222396612Y-117535314D01*
X221678538Y-117534687D01*
X221103265Y-117772385D01*
X221340686Y-117200612D01*
X221341313Y-116482538D01*
X221067097Y-115818885D01*
X220813169Y-115564514D01*
X223440120Y-115564514D01*
X224536000Y-116660395D01*
X225631880Y-115564514D01*
X225512414Y-115280016D01*
X224841110Y-115025106D01*
X224123354Y-115046496D01*
X223559586Y-115280016D01*
X223440120Y-115564514D01*
X220813169Y-115564514D01*
X220559785Y-115310688D01*
X219896612Y-115035314D01*
X219178538Y-115034687D01*
X218514885Y-115308903D01*
X218006688Y-115816215D01*
X217731314Y-116479388D01*
X217730687Y-117197462D01*
X214502527Y-117197462D01*
X214713880Y-116881151D01*
X214823113Y-116332000D01*
X214713880Y-115782849D01*
X214402811Y-115317302D01*
X213937264Y-115006233D01*
X213388113Y-114897000D01*
X213331887Y-114897000D01*
X212782736Y-115006233D01*
X212317189Y-115317302D01*
X212006120Y-115782849D01*
X211896887Y-116332000D01*
X207187440Y-116332000D01*
X207187440Y-115532000D01*
X207143162Y-115296683D01*
X207004090Y-115080559D01*
X206791890Y-114935569D01*
X206540000Y-114884560D01*
X204940000Y-114884560D01*
X204704683Y-114928838D01*
X204488559Y-115067910D01*
X204343569Y-115280110D01*
X204292560Y-115532000D01*
X204292560Y-117132000D01*
X204336838Y-117367317D01*
X204475910Y-117583441D01*
X204688110Y-117728431D01*
X204843089Y-117759815D01*
X204697189Y-117857302D01*
X204386120Y-118322849D01*
X204276887Y-118872000D01*
X187373204Y-118872000D01*
X187463113Y-118420000D01*
X187353880Y-117870849D01*
X187042811Y-117405302D01*
X186660725Y-117150000D01*
X187042811Y-116894698D01*
X187353880Y-116429151D01*
X187463113Y-115880000D01*
X187449565Y-115811887D01*
X190815000Y-115811887D01*
X190815000Y-115868113D01*
X190924233Y-116417264D01*
X191235302Y-116882811D01*
X191700849Y-117193880D01*
X192250000Y-117303113D01*
X192799151Y-117193880D01*
X193264698Y-116882811D01*
X193575767Y-116417264D01*
X193685000Y-115868113D01*
X193685000Y-115811887D01*
X193575767Y-115262736D01*
X193264698Y-114797189D01*
X192799151Y-114486120D01*
X192250000Y-114376887D01*
X191700849Y-114486120D01*
X191235302Y-114797189D01*
X190924233Y-115262736D01*
X190815000Y-115811887D01*
X187449565Y-115811887D01*
X187353880Y-115330849D01*
X187042811Y-114865302D01*
X186577264Y-114554233D01*
X186028113Y-114445000D01*
X185971887Y-114445000D01*
X185422736Y-114554233D01*
X184957189Y-114865302D01*
X184646120Y-115330849D01*
X184536887Y-115880000D01*
X179843113Y-115880000D01*
X179733880Y-115330849D01*
X179422811Y-114865302D01*
X178957264Y-114554233D01*
X178408113Y-114445000D01*
X178351887Y-114445000D01*
X177802736Y-114554233D01*
X177337189Y-114865302D01*
X177026120Y-115330849D01*
X176916887Y-115880000D01*
X173023601Y-115880000D01*
X173138750Y-115602691D01*
X173139248Y-115031813D01*
X172921243Y-114504200D01*
X172517923Y-114100176D01*
X171990691Y-113881250D01*
X171419813Y-113880752D01*
X170892200Y-114098757D01*
X170488176Y-114502077D01*
X170269250Y-115029309D01*
X170268752Y-115600187D01*
X168605612Y-115600187D01*
X168469507Y-115270788D01*
X168194659Y-114995460D01*
X167835370Y-114846270D01*
X167446337Y-114845931D01*
X167086788Y-114994493D01*
X166811460Y-115269341D01*
X166662270Y-115628630D01*
X166661931Y-116017663D01*
X166435730Y-116017663D01*
X166463113Y-115880000D01*
X166353880Y-115330849D01*
X166042811Y-114865302D01*
X165577264Y-114554233D01*
X165028113Y-114445000D01*
X164971887Y-114445000D01*
X164422736Y-114554233D01*
X163957189Y-114865302D01*
X163646120Y-115330849D01*
X163536887Y-115880000D01*
X158843113Y-115880000D01*
X158733880Y-115330849D01*
X158422811Y-114865302D01*
X157957264Y-114554233D01*
X157408113Y-114445000D01*
X157351887Y-114445000D01*
X156802736Y-114554233D01*
X156337189Y-114865302D01*
X156026120Y-115330849D01*
X155916887Y-115880000D01*
X145292195Y-115880000D01*
X145434750Y-115536691D01*
X145435248Y-114965813D01*
X145217243Y-114438200D01*
X144813923Y-114034176D01*
X144286691Y-113815250D01*
X143715813Y-113814752D01*
X143188200Y-114032757D01*
X142784176Y-114436077D01*
X142565250Y-114963309D01*
X142564752Y-115534187D01*
X140918000Y-115534187D01*
X140918000Y-112470000D01*
X229922000Y-112470000D01*
X229922000Y-155754000D01*
X229922000Y-155754000D01*
G37*
X229922000Y-155754000D02*
X140918000Y-155754000D01*
X140918000Y-147594000D01*
X150756560Y-147594000D01*
X150756560Y-150094000D01*
X150800838Y-150329317D01*
X150939910Y-150545441D01*
X151152110Y-150690431D01*
X151404000Y-150741440D01*
X153904000Y-150741440D01*
X154139317Y-150697162D01*
X154355441Y-150558090D01*
X154500431Y-150345890D01*
X154534567Y-150177320D01*
X156500285Y-150177320D01*
X156629533Y-150470123D01*
X157329806Y-150738388D01*
X158079435Y-150718250D01*
X158678467Y-150470123D01*
X158807715Y-150177320D01*
X157654000Y-149023605D01*
X156500285Y-150177320D01*
X154534567Y-150177320D01*
X154551440Y-150094000D01*
X154551440Y-148519806D01*
X155759612Y-148519806D01*
X155779750Y-149269435D01*
X156027877Y-149868467D01*
X156320680Y-149997715D01*
X157474395Y-148844000D01*
X157833605Y-148844000D01*
X158987320Y-149997715D01*
X159280123Y-149868467D01*
X159548388Y-149168194D01*
X159528250Y-148418565D01*
X159280123Y-147819533D01*
X158987320Y-147690285D01*
X157833605Y-148844000D01*
X157474395Y-148844000D01*
X156320680Y-147690285D01*
X156027877Y-147819533D01*
X155759612Y-148519806D01*
X154551440Y-148519806D01*
X154551440Y-147594000D01*
X154535763Y-147510680D01*
X156500285Y-147510680D01*
X157654000Y-148664395D01*
X158724395Y-147594000D01*
X161170560Y-147594000D01*
X161170560Y-150094000D01*
X161214838Y-150329317D01*
X161353910Y-150545441D01*
X161566110Y-150690431D01*
X161818000Y-150741440D01*
X164318000Y-150741440D01*
X164553317Y-150697162D01*
X164769441Y-150558090D01*
X164914431Y-150345890D01*
X164948567Y-150177320D01*
X166914285Y-150177320D01*
X167043533Y-150470123D01*
X167743806Y-150738388D01*
X168493435Y-150718250D01*
X169092467Y-150470123D01*
X169221715Y-150177320D01*
X168068000Y-149023605D01*
X166914285Y-150177320D01*
X164948567Y-150177320D01*
X164965440Y-150094000D01*
X164965440Y-148519806D01*
X166173612Y-148519806D01*
X166193750Y-149269435D01*
X166441877Y-149868467D01*
X166734680Y-149997715D01*
X167888395Y-148844000D01*
X168247605Y-148844000D01*
X169401320Y-149997715D01*
X169694123Y-149868467D01*
X169962388Y-149168194D01*
X169942250Y-148418565D01*
X169694123Y-147819533D01*
X169401320Y-147690285D01*
X168247605Y-148844000D01*
X167888395Y-148844000D01*
X166734680Y-147690285D01*
X166441877Y-147819533D01*
X166173612Y-148519806D01*
X164965440Y-148519806D01*
X164965440Y-147594000D01*
X164949763Y-147510680D01*
X166914285Y-147510680D01*
X168068000Y-148664395D01*
X169138395Y-147594000D01*
X194190560Y-147594000D01*
X194190560Y-150094000D01*
X194234838Y-150329317D01*
X194373910Y-150545441D01*
X194586110Y-150690431D01*
X194838000Y-150741440D01*
X197338000Y-150741440D01*
X197573317Y-150697162D01*
X197789441Y-150558090D01*
X197934431Y-150345890D01*
X197968567Y-150177320D01*
X199934285Y-150177320D01*
X200063533Y-150470123D01*
X200763806Y-150738388D01*
X201513435Y-150718250D01*
X202112467Y-150470123D01*
X202241715Y-150177320D01*
X201088000Y-149023605D01*
X199934285Y-150177320D01*
X197968567Y-150177320D01*
X197985440Y-150094000D01*
X197985440Y-148519806D01*
X199193612Y-148519806D01*
X199213750Y-149269435D01*
X199461877Y-149868467D01*
X199754680Y-149997715D01*
X200908395Y-148844000D01*
X201267605Y-148844000D01*
X202421320Y-149997715D01*
X202714123Y-149868467D01*
X202982388Y-149168194D01*
X202962250Y-148418565D01*
X202714123Y-147819533D01*
X202421320Y-147690285D01*
X201267605Y-148844000D01*
X200908395Y-148844000D01*
X199754680Y-147690285D01*
X199461877Y-147819533D01*
X199193612Y-148519806D01*
X197985440Y-148519806D01*
X197985440Y-147594000D01*
X197969763Y-147510680D01*
X199934285Y-147510680D01*
X201088000Y-148664395D01*
X202127395Y-147625000D01*
X208977560Y-147625000D01*
X208977560Y-150125000D01*
X209021838Y-150360317D01*
X209160910Y-150576441D01*
X209373110Y-150721431D01*
X209625000Y-150772440D01*
X212125000Y-150772440D01*
X212360317Y-150728162D01*
X212576441Y-150589090D01*
X212721431Y-150376890D01*
X212755567Y-150208320D01*
X214721285Y-150208320D01*
X214850533Y-150501123D01*
X215550806Y-150769388D01*
X216300435Y-150749250D01*
X216899467Y-150501123D01*
X217028715Y-150208320D01*
X215875000Y-149054605D01*
X214721285Y-150208320D01*
X212755567Y-150208320D01*
X212772440Y-150125000D01*
X212772440Y-148550806D01*
X213980612Y-148550806D01*
X214000750Y-149300435D01*
X214248877Y-149899467D01*
X214541680Y-150028715D01*
X215695395Y-148875000D01*
X216054605Y-148875000D01*
X217208320Y-150028715D01*
X217501123Y-149899467D01*
X217769388Y-149199194D01*
X217767523Y-149129750D01*
X219349000Y-149129750D01*
X219349000Y-150220310D01*
X219445673Y-150453699D01*
X219624302Y-150632327D01*
X219857691Y-150729000D01*
X220948250Y-150729000D01*
X221107000Y-150570250D01*
X221107000Y-148971000D01*
X221361000Y-148971000D01*
X221361000Y-150570250D01*
X221519750Y-150729000D01*
X222610309Y-150729000D01*
X222843698Y-150632327D01*
X223022327Y-150453699D01*
X223119000Y-150220310D01*
X223119000Y-149217305D01*
X224348674Y-149217305D01*
X224635043Y-149910372D01*
X225164839Y-150441093D01*
X225857405Y-150728672D01*
X226607305Y-150729326D01*
X227300372Y-150442957D01*
X227831093Y-149913161D01*
X228118672Y-149220595D01*
X228119326Y-148470695D01*
X227832957Y-147777628D01*
X227303161Y-147246907D01*
X226610595Y-146959328D01*
X225860695Y-146958674D01*
X225167628Y-147245043D01*
X224636907Y-147774839D01*
X224349328Y-148467405D01*
X224348674Y-149217305D01*
X223119000Y-149217305D01*
X223119000Y-149129750D01*
X222960250Y-148971000D01*
X221361000Y-148971000D01*
X221107000Y-148971000D01*
X219507750Y-148971000D01*
X219349000Y-149129750D01*
X217767523Y-149129750D01*
X217749250Y-148449565D01*
X217501123Y-147850533D01*
X217208320Y-147721285D01*
X216054605Y-148875000D01*
X215695395Y-148875000D01*
X214541680Y-147721285D01*
X214248877Y-147850533D01*
X213980612Y-148550806D01*
X212772440Y-148550806D01*
X212772440Y-147625000D01*
X212756763Y-147541680D01*
X214721285Y-147541680D01*
X215875000Y-148695395D01*
X217028715Y-147541680D01*
X216996055Y-147467690D01*
X219349000Y-147467690D01*
X219349000Y-148558250D01*
X219507750Y-148717000D01*
X221107000Y-148717000D01*
X221107000Y-147117750D01*
X221361000Y-147117750D01*
X221361000Y-148717000D01*
X222960250Y-148717000D01*
X223119000Y-148558250D01*
X223119000Y-147467690D01*
X223022327Y-147234301D01*
X222843698Y-147055673D01*
X222610309Y-146959000D01*
X221519750Y-146959000D01*
X221361000Y-147117750D01*
X221107000Y-147117750D01*
X220948250Y-146959000D01*
X219857691Y-146959000D01*
X219624302Y-147055673D01*
X219445673Y-147234301D01*
X219349000Y-147467690D01*
X216996055Y-147467690D01*
X216899467Y-147248877D01*
X216199194Y-146980612D01*
X215449565Y-147000750D01*
X214850533Y-147248877D01*
X214721285Y-147541680D01*
X212756763Y-147541680D01*
X212728162Y-147389683D01*
X212589090Y-147173559D01*
X212376890Y-147028569D01*
X212125000Y-146977560D01*
X209625000Y-146977560D01*
X209389683Y-147021838D01*
X209173559Y-147160910D01*
X209028569Y-147373110D01*
X208977560Y-147625000D01*
X202127395Y-147625000D01*
X202241715Y-147510680D01*
X202112467Y-147217877D01*
X201412194Y-146949612D01*
X200662565Y-146969750D01*
X200063533Y-147217877D01*
X199934285Y-147510680D01*
X197969763Y-147510680D01*
X197941162Y-147358683D01*
X197802090Y-147142559D01*
X197589890Y-146997569D01*
X197338000Y-146946560D01*
X194838000Y-146946560D01*
X194602683Y-146990838D01*
X194386559Y-147129910D01*
X194241569Y-147342110D01*
X194190560Y-147594000D01*
X169138395Y-147594000D01*
X169221715Y-147510680D01*
X169092467Y-147217877D01*
X168392194Y-146949612D01*
X167642565Y-146969750D01*
X167043533Y-147217877D01*
X166914285Y-147510680D01*
X164949763Y-147510680D01*
X164921162Y-147358683D01*
X164782090Y-147142559D01*
X164569890Y-146997569D01*
X164318000Y-146946560D01*
X161818000Y-146946560D01*
X161582683Y-146990838D01*
X161366559Y-147129910D01*
X161221569Y-147342110D01*
X161170560Y-147594000D01*
X158724395Y-147594000D01*
X158807715Y-147510680D01*
X158678467Y-147217877D01*
X157978194Y-146949612D01*
X157228565Y-146969750D01*
X156629533Y-147217877D01*
X156500285Y-147510680D01*
X154535763Y-147510680D01*
X154507162Y-147358683D01*
X154368090Y-147142559D01*
X154155890Y-146997569D01*
X153904000Y-146946560D01*
X151404000Y-146946560D01*
X151168683Y-146990838D01*
X150952559Y-147129910D01*
X150807569Y-147342110D01*
X150756560Y-147594000D01*
X140918000Y-147594000D01*
X140918000Y-142433663D01*
X178853931Y-142433663D01*
X179002493Y-142793212D01*
X179277341Y-143068540D01*
X179636630Y-143217730D01*
X180025663Y-143218069D01*
X180385212Y-143069507D01*
X180503726Y-142951200D01*
X183224206Y-142951200D01*
X183341341Y-143068540D01*
X183700630Y-143217730D01*
X184089663Y-143218069D01*
X184449212Y-143069507D01*
X184724540Y-142794659D01*
X184873730Y-142435370D01*
X184874069Y-142046337D01*
X184725507Y-141686788D01*
X184450659Y-141411460D01*
X184091370Y-141262270D01*
X183702337Y-141261931D01*
X183342788Y-141410493D01*
X183224274Y-141528800D01*
X180503794Y-141528800D01*
X180386659Y-141411460D01*
X180027370Y-141262270D01*
X179638337Y-141261931D01*
X179278788Y-141410493D01*
X179003460Y-141685341D01*
X178854270Y-142044630D01*
X178853931Y-142433663D01*
X140918000Y-142433663D01*
X140918000Y-139509041D01*
X142608086Y-139509041D01*
X142847611Y-140015134D01*
X143262577Y-140391041D01*
X143650961Y-140551904D01*
X143873000Y-140429915D01*
X143873000Y-139287000D01*
X144127000Y-139287000D01*
X144127000Y-140429915D01*
X144349039Y-140551904D01*
X144737423Y-140391041D01*
X145152389Y-140015134D01*
X145391914Y-139509041D01*
X163858086Y-139509041D01*
X164097611Y-140015134D01*
X164512577Y-140391041D01*
X164900961Y-140551904D01*
X165123000Y-140429915D01*
X165123000Y-139287000D01*
X165377000Y-139287000D01*
X165377000Y-140429915D01*
X165599039Y-140551904D01*
X165987423Y-140391041D01*
X166402389Y-140015134D01*
X166641914Y-139509041D01*
X185108086Y-139509041D01*
X185347611Y-140015134D01*
X185762577Y-140391041D01*
X186150961Y-140551904D01*
X186373000Y-140429915D01*
X186373000Y-139287000D01*
X186627000Y-139287000D01*
X186627000Y-140429915D01*
X186849039Y-140551904D01*
X187237423Y-140391041D01*
X187652389Y-140015134D01*
X187891914Y-139509041D01*
X187770629Y-139287000D01*
X186627000Y-139287000D01*
X186373000Y-139287000D01*
X185229371Y-139287000D01*
X185108086Y-139509041D01*
X166641914Y-139509041D01*
X166520629Y-139287000D01*
X165377000Y-139287000D01*
X165123000Y-139287000D01*
X163979371Y-139287000D01*
X163858086Y-139509041D01*
X145391914Y-139509041D01*
X145270629Y-139287000D01*
X144127000Y-139287000D01*
X143873000Y-139287000D01*
X142729371Y-139287000D01*
X142608086Y-139509041D01*
X140918000Y-139509041D01*
X140918000Y-139163887D01*
X190843000Y-139163887D01*
X190843000Y-139220113D01*
X190952233Y-139769264D01*
X191263302Y-140234811D01*
X191728849Y-140545880D01*
X192278000Y-140655113D01*
X192827151Y-140545880D01*
X193292698Y-140234811D01*
X193603767Y-139769264D01*
X193713000Y-139220113D01*
X193713000Y-139163887D01*
X193603767Y-138614736D01*
X193292698Y-138149189D01*
X192827151Y-137838120D01*
X192278000Y-137728887D01*
X191728849Y-137838120D01*
X191263302Y-138149189D01*
X190952233Y-138614736D01*
X190843000Y-139163887D01*
X140918000Y-139163887D01*
X140918000Y-138810959D01*
X142608086Y-138810959D01*
X142729371Y-139033000D01*
X143873000Y-139033000D01*
X143873000Y-137890085D01*
X144127000Y-137890085D01*
X144127000Y-139033000D01*
X145270629Y-139033000D01*
X145391914Y-138810959D01*
X163858086Y-138810959D01*
X163979371Y-139033000D01*
X165123000Y-139033000D01*
X165123000Y-137890085D01*
X165377000Y-137890085D01*
X165377000Y-139033000D01*
X166520629Y-139033000D01*
X166641914Y-138810959D01*
X185108086Y-138810959D01*
X185229371Y-139033000D01*
X186373000Y-139033000D01*
X186373000Y-137890085D01*
X186627000Y-137890085D01*
X186627000Y-139033000D01*
X187770629Y-139033000D01*
X187891914Y-138810959D01*
X187652389Y-138304866D01*
X187237423Y-137928959D01*
X186849039Y-137768096D01*
X186627000Y-137890085D01*
X186373000Y-137890085D01*
X186150961Y-137768096D01*
X185762577Y-137928959D01*
X185347611Y-138304866D01*
X185108086Y-138810959D01*
X166641914Y-138810959D01*
X166402389Y-138304866D01*
X165987423Y-137928959D01*
X165599039Y-137768096D01*
X165377000Y-137890085D01*
X165123000Y-137890085D01*
X164900961Y-137768096D01*
X164512577Y-137928959D01*
X164097611Y-138304866D01*
X163858086Y-138810959D01*
X145391914Y-138810959D01*
X145152389Y-138304866D01*
X144737423Y-137928959D01*
X144349039Y-137768096D01*
X144127000Y-137890085D01*
X143873000Y-137890085D01*
X143650961Y-137768096D01*
X143262577Y-137928959D01*
X142847611Y-138304866D01*
X142608086Y-138810959D01*
X140918000Y-138810959D01*
X140918000Y-136034187D01*
X149564752Y-136034187D01*
X149782757Y-136561800D01*
X150186077Y-136965824D01*
X150713309Y-137184750D01*
X151284187Y-137185248D01*
X151811800Y-136967243D01*
X152215824Y-136563923D01*
X152434750Y-136036691D01*
X152435000Y-135750000D01*
X157036887Y-135750000D01*
X157146120Y-136299151D01*
X157457189Y-136764698D01*
X157922736Y-137075767D01*
X158471887Y-137185000D01*
X158528113Y-137185000D01*
X159077264Y-137075767D01*
X159542811Y-136764698D01*
X159853880Y-136299151D01*
X159963113Y-135750000D01*
X159853880Y-135200849D01*
X159655657Y-134904187D01*
X197700752Y-134904187D01*
X197918757Y-135431800D01*
X198322077Y-135835824D01*
X198849309Y-136054750D01*
X199420187Y-136055248D01*
X199947800Y-135837243D01*
X200351824Y-135433923D01*
X200570750Y-134906691D01*
X200571138Y-134461039D01*
X204348096Y-134461039D01*
X204508959Y-134849423D01*
X204884866Y-135264389D01*
X205390959Y-135503914D01*
X205613000Y-135382629D01*
X205613000Y-134239000D01*
X205867000Y-134239000D01*
X205867000Y-135382629D01*
X206089041Y-135503914D01*
X206595134Y-135264389D01*
X206971041Y-134849423D01*
X207131904Y-134461039D01*
X207009915Y-134239000D01*
X205867000Y-134239000D01*
X205613000Y-134239000D01*
X204470085Y-134239000D01*
X204348096Y-134461039D01*
X200571138Y-134461039D01*
X200571248Y-134335813D01*
X200353243Y-133808200D01*
X199949923Y-133404176D01*
X199422691Y-133185250D01*
X198851813Y-133184752D01*
X198324200Y-133402757D01*
X197920176Y-133806077D01*
X197701250Y-134333309D01*
X197700752Y-134904187D01*
X159655657Y-134904187D01*
X159542811Y-134735302D01*
X159077264Y-134424233D01*
X158528113Y-134315000D01*
X158471887Y-134315000D01*
X157922736Y-134424233D01*
X157457189Y-134735302D01*
X157146120Y-135200849D01*
X157036887Y-135750000D01*
X152435000Y-135750000D01*
X152435248Y-135465813D01*
X152217243Y-134938200D01*
X151813923Y-134534176D01*
X151286691Y-134315250D01*
X150715813Y-134314752D01*
X150188200Y-134532757D01*
X149784176Y-134936077D01*
X149565250Y-135463309D01*
X149564752Y-136034187D01*
X140918000Y-136034187D01*
X140918000Y-129284187D01*
X142564752Y-129284187D01*
X142782757Y-129811800D01*
X143186077Y-130215824D01*
X143713309Y-130434750D01*
X144284187Y-130435248D01*
X144811800Y-130217243D01*
X145215824Y-129813923D01*
X145228171Y-129784187D01*
X149564752Y-129784187D01*
X149782757Y-130311800D01*
X150186077Y-130715824D01*
X150713309Y-130934750D01*
X151284187Y-130935248D01*
X151811800Y-130717243D01*
X152215824Y-130313923D01*
X152434750Y-129786691D01*
X152435000Y-129500000D01*
X159696887Y-129500000D01*
X159806120Y-130049151D01*
X160117189Y-130514698D01*
X160582736Y-130825767D01*
X161131887Y-130935000D01*
X161188113Y-130935000D01*
X161737264Y-130825767D01*
X162202811Y-130514698D01*
X162513880Y-130049151D01*
X162623113Y-129500000D01*
X162580186Y-129284187D01*
X163814752Y-129284187D01*
X164032757Y-129811800D01*
X164436077Y-130215824D01*
X164963309Y-130434750D01*
X165534187Y-130435248D01*
X166061800Y-130217243D01*
X166465824Y-129813923D01*
X166581980Y-129534187D01*
X170314752Y-129534187D01*
X170532757Y-130061800D01*
X170936077Y-130465824D01*
X171463309Y-130684750D01*
X172034187Y-130685248D01*
X172561800Y-130467243D01*
X172965824Y-130063923D01*
X173184750Y-129536691D01*
X173185000Y-129250000D01*
X180446887Y-129250000D01*
X180556120Y-129799151D01*
X180867189Y-130264698D01*
X181332736Y-130575767D01*
X181881887Y-130685000D01*
X181938113Y-130685000D01*
X182487264Y-130575767D01*
X182952811Y-130264698D01*
X183263880Y-129799151D01*
X183366312Y-129284187D01*
X185064752Y-129284187D01*
X185282757Y-129811800D01*
X185686077Y-130215824D01*
X186213309Y-130434750D01*
X186784187Y-130435248D01*
X187311800Y-130217243D01*
X187715824Y-129813923D01*
X187922502Y-129316187D01*
X190842752Y-129316187D01*
X191060757Y-129843800D01*
X191464077Y-130247824D01*
X191991309Y-130466750D01*
X192562187Y-130467248D01*
X193089800Y-130249243D01*
X193493824Y-129845923D01*
X193712750Y-129318691D01*
X193713000Y-129032000D01*
X204276887Y-129032000D01*
X204386120Y-129581151D01*
X204697189Y-130046698D01*
X205079275Y-130302000D01*
X204697189Y-130557302D01*
X204386120Y-131022849D01*
X204276887Y-131572000D01*
X204386120Y-132121151D01*
X204697189Y-132586698D01*
X205101703Y-132856986D01*
X204884866Y-132959611D01*
X204508959Y-133374577D01*
X204348096Y-133762961D01*
X204470085Y-133985000D01*
X205613000Y-133985000D01*
X205613000Y-133965000D01*
X205867000Y-133965000D01*
X205867000Y-133985000D01*
X207009915Y-133985000D01*
X207131904Y-133762961D01*
X206971041Y-133374577D01*
X206595134Y-132959611D01*
X206378297Y-132856986D01*
X206782811Y-132586698D01*
X207093880Y-132121151D01*
X207203113Y-131572000D01*
X207093880Y-131022849D01*
X206782811Y-130557302D01*
X206400725Y-130302000D01*
X206782811Y-130046698D01*
X207093880Y-129581151D01*
X207203113Y-129032000D01*
X207093880Y-128482849D01*
X206782811Y-128017302D01*
X206378297Y-127747014D01*
X206595134Y-127644389D01*
X206971041Y-127229423D01*
X207131904Y-126841039D01*
X207009915Y-126619000D01*
X205867000Y-126619000D01*
X205867000Y-126639000D01*
X205613000Y-126639000D01*
X205613000Y-126619000D01*
X204470085Y-126619000D01*
X204348096Y-126841039D01*
X204508959Y-127229423D01*
X204884866Y-127644389D01*
X205101703Y-127747014D01*
X204697189Y-128017302D01*
X204386120Y-128482849D01*
X204276887Y-129032000D01*
X193713000Y-129032000D01*
X193713248Y-128747813D01*
X193495243Y-128220200D01*
X193091923Y-127816176D01*
X192564691Y-127597250D01*
X191993813Y-127596752D01*
X191466200Y-127814757D01*
X191062176Y-128218077D01*
X190843250Y-128745309D01*
X190842752Y-129316187D01*
X187922502Y-129316187D01*
X187934750Y-129286691D01*
X187935248Y-128715813D01*
X187717243Y-128188200D01*
X187313923Y-127784176D01*
X186786691Y-127565250D01*
X186215813Y-127564752D01*
X185688200Y-127782757D01*
X185284176Y-128186077D01*
X185065250Y-128713309D01*
X185064752Y-129284187D01*
X183366312Y-129284187D01*
X183373113Y-129250000D01*
X183263880Y-128700849D01*
X182952811Y-128235302D01*
X182487264Y-127924233D01*
X181938113Y-127815000D01*
X181881887Y-127815000D01*
X181332736Y-127924233D01*
X180867189Y-128235302D01*
X180556120Y-128700849D01*
X180446887Y-129250000D01*
X173185000Y-129250000D01*
X173185248Y-128965813D01*
X172967243Y-128438200D01*
X172563923Y-128034176D01*
X172036691Y-127815250D01*
X171465813Y-127814752D01*
X170938200Y-128032757D01*
X170534176Y-128436077D01*
X170315250Y-128963309D01*
X170314752Y-129534187D01*
X166581980Y-129534187D01*
X166684750Y-129286691D01*
X166685248Y-128715813D01*
X166467243Y-128188200D01*
X166063923Y-127784176D01*
X165536691Y-127565250D01*
X164965813Y-127564752D01*
X164438200Y-127782757D01*
X164034176Y-128186077D01*
X163815250Y-128713309D01*
X163814752Y-129284187D01*
X162580186Y-129284187D01*
X162513880Y-128950849D01*
X162202811Y-128485302D01*
X161737264Y-128174233D01*
X161188113Y-128065000D01*
X161131887Y-128065000D01*
X160582736Y-128174233D01*
X160117189Y-128485302D01*
X159806120Y-128950849D01*
X159696887Y-129500000D01*
X152435000Y-129500000D01*
X152435248Y-129215813D01*
X152217243Y-128688200D01*
X151813923Y-128284176D01*
X151286691Y-128065250D01*
X150715813Y-128064752D01*
X150188200Y-128282757D01*
X149784176Y-128686077D01*
X149565250Y-129213309D01*
X149564752Y-129784187D01*
X145228171Y-129784187D01*
X145434750Y-129286691D01*
X145435248Y-128715813D01*
X145217243Y-128188200D01*
X144813923Y-127784176D01*
X144286691Y-127565250D01*
X143715813Y-127564752D01*
X143188200Y-127782757D01*
X142784176Y-128186077D01*
X142565250Y-128713309D01*
X142564752Y-129284187D01*
X140918000Y-129284187D01*
X140918000Y-125381887D01*
X142565000Y-125381887D01*
X142565000Y-125438113D01*
X142674233Y-125987264D01*
X142985302Y-126452811D01*
X143450849Y-126763880D01*
X144000000Y-126873113D01*
X144549151Y-126763880D01*
X145014698Y-126452811D01*
X145325767Y-125987264D01*
X145433055Y-125447887D01*
X170269000Y-125447887D01*
X170269000Y-125504113D01*
X170378233Y-126053264D01*
X170689302Y-126518811D01*
X171154849Y-126829880D01*
X171704000Y-126939113D01*
X172253151Y-126829880D01*
X172718698Y-126518811D01*
X172875468Y-126284187D01*
X190814752Y-126284187D01*
X191032757Y-126811800D01*
X191436077Y-127215824D01*
X191963309Y-127434750D01*
X192534187Y-127435248D01*
X193061800Y-127217243D01*
X193187374Y-127091887D01*
X197701000Y-127091887D01*
X197701000Y-127148113D01*
X197810233Y-127697264D01*
X198121302Y-128162811D01*
X198586849Y-128473880D01*
X199136000Y-128583113D01*
X199685151Y-128473880D01*
X200150698Y-128162811D01*
X200461767Y-127697264D01*
X200571000Y-127148113D01*
X200571000Y-127091887D01*
X200461767Y-126542736D01*
X200150698Y-126077189D01*
X199685151Y-125766120D01*
X199136000Y-125656887D01*
X198586849Y-125766120D01*
X198121302Y-126077189D01*
X197810233Y-126542736D01*
X197701000Y-127091887D01*
X193187374Y-127091887D01*
X193465824Y-126813923D01*
X193684750Y-126286691D01*
X193685248Y-125715813D01*
X193467243Y-125188200D01*
X193063923Y-124784176D01*
X192536691Y-124565250D01*
X191965813Y-124564752D01*
X191438200Y-124782757D01*
X191034176Y-125186077D01*
X190815250Y-125713309D01*
X190814752Y-126284187D01*
X172875468Y-126284187D01*
X173029767Y-126053264D01*
X173139000Y-125504113D01*
X173139000Y-125447887D01*
X173029767Y-124898736D01*
X172718698Y-124433189D01*
X172253151Y-124122120D01*
X171704000Y-124012887D01*
X171154849Y-124122120D01*
X170689302Y-124433189D01*
X170378233Y-124898736D01*
X170269000Y-125447887D01*
X145433055Y-125447887D01*
X145435000Y-125438113D01*
X145435000Y-125381887D01*
X145325767Y-124832736D01*
X145014698Y-124367189D01*
X144549151Y-124056120D01*
X144000000Y-123946887D01*
X143450849Y-124056120D01*
X142985302Y-124367189D01*
X142674233Y-124832736D01*
X142565000Y-125381887D01*
X140918000Y-125381887D01*
X140918000Y-115534187D01*
X142564752Y-115534187D01*
X142782757Y-116061800D01*
X143186077Y-116465824D01*
X143713309Y-116684750D01*
X144284187Y-116685248D01*
X144811800Y-116467243D01*
X145215824Y-116063923D01*
X145292195Y-115880000D01*
X155916887Y-115880000D01*
X156026120Y-116429151D01*
X156337189Y-116894698D01*
X156719275Y-117150000D01*
X156337189Y-117405302D01*
X156026120Y-117870849D01*
X155916887Y-118420000D01*
X156026120Y-118969151D01*
X156337189Y-119434698D01*
X156719275Y-119690000D01*
X156337189Y-119945302D01*
X156026120Y-120410849D01*
X155916887Y-120960000D01*
X156026120Y-121509151D01*
X156337189Y-121974698D01*
X156719275Y-122230000D01*
X156337189Y-122485302D01*
X156026120Y-122950849D01*
X155916887Y-123500000D01*
X156026120Y-124049151D01*
X156337189Y-124514698D01*
X156802736Y-124825767D01*
X157351887Y-124935000D01*
X157408113Y-124935000D01*
X157957264Y-124825767D01*
X158422811Y-124514698D01*
X158733880Y-124049151D01*
X158843113Y-123500000D01*
X158733880Y-122950849D01*
X158422811Y-122485302D01*
X158040725Y-122230000D01*
X158422811Y-121974698D01*
X158733880Y-121509151D01*
X158843113Y-120960000D01*
X158733880Y-120410849D01*
X158422811Y-119945302D01*
X158040725Y-119690000D01*
X158422811Y-119434698D01*
X158733880Y-118969151D01*
X158843113Y-118420000D01*
X158733880Y-117870849D01*
X158422811Y-117405302D01*
X158040725Y-117150000D01*
X158422811Y-116894698D01*
X158733880Y-116429151D01*
X158843113Y-115880000D01*
X163536887Y-115880000D01*
X163646120Y-116429151D01*
X163957189Y-116894698D01*
X164339275Y-117150000D01*
X163957189Y-117405302D01*
X163646120Y-117870849D01*
X163536887Y-118420000D01*
X163646120Y-118969151D01*
X163957189Y-119434698D01*
X164339275Y-119690000D01*
X163957189Y-119945302D01*
X163646120Y-120410849D01*
X163536887Y-120960000D01*
X163646120Y-121509151D01*
X163957189Y-121974698D01*
X164101465Y-122071101D01*
X163964683Y-122096838D01*
X163748559Y-122235910D01*
X163603569Y-122448110D01*
X163552560Y-122700000D01*
X163552560Y-124300000D01*
X163596838Y-124535317D01*
X163735910Y-124751441D01*
X163948110Y-124896431D01*
X164200000Y-124947440D01*
X165800000Y-124947440D01*
X166035317Y-124903162D01*
X166251441Y-124764090D01*
X166396431Y-124551890D01*
X166447440Y-124300000D01*
X166447440Y-122700000D01*
X166403162Y-122464683D01*
X166264090Y-122248559D01*
X166051890Y-122103569D01*
X165896911Y-122072185D01*
X166042811Y-121974698D01*
X166353880Y-121509151D01*
X166463113Y-120960000D01*
X166353880Y-120410849D01*
X166042811Y-119945302D01*
X165660725Y-119690000D01*
X166042811Y-119434698D01*
X166353880Y-118969151D01*
X166463113Y-118420000D01*
X166353880Y-117870849D01*
X166042811Y-117405302D01*
X165660725Y-117150000D01*
X166042811Y-116894698D01*
X166353880Y-116429151D01*
X166435730Y-116017663D01*
X166661931Y-116017663D01*
X166810493Y-116377212D01*
X167085341Y-116652540D01*
X167444630Y-116801730D01*
X167529061Y-116801804D01*
X167932154Y-117285515D01*
X167931931Y-117541663D01*
X168080493Y-117901212D01*
X168355341Y-118176540D01*
X168714630Y-118325730D01*
X169103663Y-118326069D01*
X169463212Y-118177507D01*
X169738540Y-117902659D01*
X169887730Y-117543370D01*
X169888069Y-117154337D01*
X169739507Y-116794788D01*
X169464659Y-116519460D01*
X169105370Y-116370270D01*
X169020939Y-116370196D01*
X168617846Y-115886485D01*
X168618069Y-115630337D01*
X168605612Y-115600187D01*
X170268752Y-115600187D01*
X170486757Y-116127800D01*
X170890077Y-116531824D01*
X171417309Y-116750750D01*
X171988187Y-116751248D01*
X172515800Y-116533243D01*
X172919824Y-116129923D01*
X173023601Y-115880000D01*
X176916887Y-115880000D01*
X177026120Y-116429151D01*
X177337189Y-116894698D01*
X177719275Y-117150000D01*
X177337189Y-117405302D01*
X177026120Y-117870849D01*
X176916887Y-118420000D01*
X177026120Y-118969151D01*
X177337189Y-119434698D01*
X177719275Y-119690000D01*
X177337189Y-119945302D01*
X177026120Y-120410849D01*
X176916887Y-120960000D01*
X177026120Y-121509151D01*
X177337189Y-121974698D01*
X177719275Y-122230000D01*
X177337189Y-122485302D01*
X177026120Y-122950849D01*
X176916887Y-123500000D01*
X177026120Y-124049151D01*
X177337189Y-124514698D01*
X177802736Y-124825767D01*
X178351887Y-124935000D01*
X178408113Y-124935000D01*
X178957264Y-124825767D01*
X179422811Y-124514698D01*
X179733880Y-124049151D01*
X179843113Y-123500000D01*
X179733880Y-122950849D01*
X179422811Y-122485302D01*
X179040725Y-122230000D01*
X179422811Y-121974698D01*
X179733880Y-121509151D01*
X179843113Y-120960000D01*
X179733880Y-120410849D01*
X179422811Y-119945302D01*
X179040725Y-119690000D01*
X179422811Y-119434698D01*
X179733880Y-118969151D01*
X179843113Y-118420000D01*
X179733880Y-117870849D01*
X179422811Y-117405302D01*
X179040725Y-117150000D01*
X179422811Y-116894698D01*
X179733880Y-116429151D01*
X179843113Y-115880000D01*
X184536887Y-115880000D01*
X184646120Y-116429151D01*
X184957189Y-116894698D01*
X185339275Y-117150000D01*
X184957189Y-117405302D01*
X184646120Y-117870849D01*
X184536887Y-118420000D01*
X184646120Y-118969151D01*
X184957189Y-119434698D01*
X185339275Y-119690000D01*
X184957189Y-119945302D01*
X184646120Y-120410849D01*
X184536887Y-120960000D01*
X184646120Y-121509151D01*
X184957189Y-121974698D01*
X185101465Y-122071101D01*
X184964683Y-122096838D01*
X184748559Y-122235910D01*
X184603569Y-122448110D01*
X184552560Y-122700000D01*
X184552560Y-124300000D01*
X184596838Y-124535317D01*
X184735910Y-124751441D01*
X184948110Y-124896431D01*
X185200000Y-124947440D01*
X186800000Y-124947440D01*
X187035317Y-124903162D01*
X187251441Y-124764090D01*
X187396431Y-124551890D01*
X187447440Y-124300000D01*
X187447440Y-122700000D01*
X187403162Y-122464683D01*
X187264090Y-122248559D01*
X187051890Y-122103569D01*
X186896911Y-122072185D01*
X187042811Y-121974698D01*
X187353880Y-121509151D01*
X187463113Y-120960000D01*
X187353880Y-120410849D01*
X187042811Y-119945302D01*
X186660725Y-119690000D01*
X187042811Y-119434698D01*
X187353880Y-118969151D01*
X187373204Y-118872000D01*
X204276887Y-118872000D01*
X204386120Y-119421151D01*
X204697189Y-119886698D01*
X205079275Y-120142000D01*
X204697189Y-120397302D01*
X204386120Y-120862849D01*
X204276887Y-121412000D01*
X204386120Y-121961151D01*
X204697189Y-122426698D01*
X205079275Y-122682000D01*
X204697189Y-122937302D01*
X204386120Y-123402849D01*
X204276887Y-123952000D01*
X204386120Y-124501151D01*
X204697189Y-124966698D01*
X205101703Y-125236986D01*
X204884866Y-125339611D01*
X204508959Y-125754577D01*
X204348096Y-126142961D01*
X204470085Y-126365000D01*
X205613000Y-126365000D01*
X205613000Y-126345000D01*
X205867000Y-126345000D01*
X205867000Y-126365000D01*
X207009915Y-126365000D01*
X207131904Y-126142961D01*
X206971041Y-125754577D01*
X206595134Y-125339611D01*
X206378297Y-125236986D01*
X206782811Y-124966698D01*
X207093880Y-124501151D01*
X207203113Y-123952000D01*
X207093880Y-123402849D01*
X206782811Y-122937302D01*
X206400725Y-122682000D01*
X206782811Y-122426698D01*
X207093880Y-121961151D01*
X207203113Y-121412000D01*
X207093880Y-120862849D01*
X206782811Y-120397302D01*
X206400725Y-120142000D01*
X206782811Y-119886698D01*
X207093880Y-119421151D01*
X207203113Y-118872000D01*
X207093880Y-118322849D01*
X206782811Y-117857302D01*
X206638535Y-117760899D01*
X206775317Y-117735162D01*
X206991441Y-117596090D01*
X207136431Y-117383890D01*
X207187440Y-117132000D01*
X207187440Y-116332000D01*
X211896887Y-116332000D01*
X212006120Y-116881151D01*
X212317189Y-117346698D01*
X212699275Y-117602000D01*
X212317189Y-117857302D01*
X212006120Y-118322849D01*
X211896887Y-118872000D01*
X212006120Y-119421151D01*
X212317189Y-119886698D01*
X212699275Y-120142000D01*
X212317189Y-120397302D01*
X212006120Y-120862849D01*
X211896887Y-121412000D01*
X212006120Y-121961151D01*
X212317189Y-122426698D01*
X212699275Y-122682000D01*
X212317189Y-122937302D01*
X212006120Y-123402849D01*
X211896887Y-123952000D01*
X212006120Y-124501151D01*
X212317189Y-124966698D01*
X212699275Y-125222000D01*
X212317189Y-125477302D01*
X212006120Y-125942849D01*
X211896887Y-126492000D01*
X212006120Y-127041151D01*
X212317189Y-127506698D01*
X212699275Y-127762000D01*
X212317189Y-128017302D01*
X212006120Y-128482849D01*
X211896887Y-129032000D01*
X212006120Y-129581151D01*
X212317189Y-130046698D01*
X212699275Y-130302000D01*
X212317189Y-130557302D01*
X212006120Y-131022849D01*
X211896887Y-131572000D01*
X212006120Y-132121151D01*
X212317189Y-132586698D01*
X212699275Y-132842000D01*
X212317189Y-133097302D01*
X212006120Y-133562849D01*
X211896887Y-134112000D01*
X212006120Y-134661151D01*
X212317189Y-135126698D01*
X212782736Y-135437767D01*
X213331887Y-135547000D01*
X213388113Y-135547000D01*
X213937264Y-135437767D01*
X214402811Y-135126698D01*
X214407456Y-135119745D01*
X224723861Y-135119745D01*
X224797995Y-135365864D01*
X225335223Y-135558965D01*
X225905454Y-135531778D01*
X226306005Y-135365864D01*
X226380139Y-135119745D01*
X225552000Y-134291605D01*
X224723861Y-135119745D01*
X214407456Y-135119745D01*
X214713880Y-134661151D01*
X214823113Y-134112000D01*
X214779994Y-133895223D01*
X224105035Y-133895223D01*
X224132222Y-134465454D01*
X224298136Y-134866005D01*
X224544255Y-134940139D01*
X225372395Y-134112000D01*
X225731605Y-134112000D01*
X226559745Y-134940139D01*
X226805864Y-134866005D01*
X226998965Y-134328777D01*
X226971778Y-133758546D01*
X226805864Y-133357995D01*
X226559745Y-133283861D01*
X225731605Y-134112000D01*
X225372395Y-134112000D01*
X224544255Y-133283861D01*
X224298136Y-133357995D01*
X224105035Y-133895223D01*
X214779994Y-133895223D01*
X214713880Y-133562849D01*
X214407457Y-133104255D01*
X224723861Y-133104255D01*
X225552000Y-133932395D01*
X226380139Y-133104255D01*
X226306005Y-132858136D01*
X225768777Y-132665035D01*
X225198546Y-132692222D01*
X224797995Y-132858136D01*
X224723861Y-133104255D01*
X214407457Y-133104255D01*
X214402811Y-133097302D01*
X214020725Y-132842000D01*
X214402811Y-132586698D01*
X214713880Y-132121151D01*
X214823113Y-131572000D01*
X214713880Y-131022849D01*
X214402811Y-130557302D01*
X214020725Y-130302000D01*
X214402811Y-130046698D01*
X214630458Y-129706000D01*
X217958560Y-129706000D01*
X217958560Y-131406000D01*
X218002838Y-131641317D01*
X218141910Y-131857441D01*
X218354110Y-132002431D01*
X218606000Y-132053440D01*
X220306000Y-132053440D01*
X220541317Y-132009162D01*
X220757441Y-131870090D01*
X220902431Y-131657890D01*
X220953440Y-131406000D01*
X220953440Y-129706000D01*
X220909162Y-129470683D01*
X220770090Y-129254559D01*
X220557890Y-129109569D01*
X220501546Y-129098159D01*
X220506054Y-129095147D01*
X220827961Y-128613378D01*
X220941000Y-128045093D01*
X220941000Y-127986907D01*
X220827961Y-127418622D01*
X220506054Y-126936853D01*
X220024285Y-126614946D01*
X219456000Y-126501907D01*
X218887715Y-126614946D01*
X218405946Y-126936853D01*
X218084039Y-127418622D01*
X217971000Y-127986907D01*
X217971000Y-128045093D01*
X218084039Y-128613378D01*
X218405946Y-129095147D01*
X218407179Y-129095971D01*
X218370683Y-129102838D01*
X218154559Y-129241910D01*
X218009569Y-129454110D01*
X217958560Y-129706000D01*
X214630458Y-129706000D01*
X214713880Y-129581151D01*
X214823113Y-129032000D01*
X214713880Y-128482849D01*
X214402811Y-128017302D01*
X214020725Y-127762000D01*
X214402811Y-127506698D01*
X214713880Y-127041151D01*
X214823113Y-126492000D01*
X214713880Y-125942849D01*
X214402811Y-125477302D01*
X214020725Y-125222000D01*
X214402811Y-124966698D01*
X214713880Y-124501151D01*
X214823113Y-123952000D01*
X214817521Y-123923887D01*
X224117000Y-123923887D01*
X224117000Y-123980113D01*
X224226233Y-124529264D01*
X224537302Y-124994811D01*
X225002849Y-125305880D01*
X225552000Y-125415113D01*
X226101151Y-125305880D01*
X226566698Y-124994811D01*
X226877767Y-124529264D01*
X226987000Y-123980113D01*
X226987000Y-123923887D01*
X226877767Y-123374736D01*
X226566698Y-122909189D01*
X226101151Y-122598120D01*
X225552000Y-122488887D01*
X225002849Y-122598120D01*
X224537302Y-122909189D01*
X224226233Y-123374736D01*
X224117000Y-123923887D01*
X214817521Y-123923887D01*
X214713880Y-123402849D01*
X214402811Y-122937302D01*
X214020725Y-122682000D01*
X214402811Y-122426698D01*
X214713880Y-121961151D01*
X214823113Y-121412000D01*
X214713880Y-120862849D01*
X214402811Y-120397302D01*
X214020725Y-120142000D01*
X214402811Y-119886698D01*
X214713880Y-119421151D01*
X214823113Y-118872000D01*
X214713880Y-118322849D01*
X214402811Y-117857302D01*
X214020725Y-117602000D01*
X214402811Y-117346698D01*
X214502527Y-117197462D01*
X217730687Y-117197462D01*
X218004903Y-117861115D01*
X218512215Y-118369312D01*
X219175388Y-118644686D01*
X219893462Y-118645313D01*
X220468735Y-118407615D01*
X220231314Y-118979388D01*
X220230687Y-119697462D01*
X220504903Y-120361115D01*
X221012215Y-120869312D01*
X221675388Y-121144686D01*
X222393462Y-121145313D01*
X223057115Y-120871097D01*
X223565312Y-120363785D01*
X223840686Y-119700612D01*
X223841313Y-118982538D01*
X223608240Y-118418459D01*
X224230890Y-118654894D01*
X224948646Y-118633504D01*
X225512414Y-118399984D01*
X225631880Y-118115486D01*
X224536000Y-117019605D01*
X224521858Y-117033748D01*
X224342252Y-116854142D01*
X224356395Y-116840000D01*
X224715605Y-116840000D01*
X225811486Y-117935880D01*
X226095984Y-117816414D01*
X226350894Y-117145110D01*
X226329504Y-116427354D01*
X226095984Y-115863586D01*
X225811486Y-115744120D01*
X224715605Y-116840000D01*
X224356395Y-116840000D01*
X223260514Y-115744120D01*
X222976016Y-115863586D01*
X222721106Y-116534890D01*
X222742496Y-117252646D01*
X222955751Y-117767489D01*
X222396612Y-117535314D01*
X221678538Y-117534687D01*
X221103265Y-117772385D01*
X221340686Y-117200612D01*
X221341313Y-116482538D01*
X221067097Y-115818885D01*
X220813169Y-115564514D01*
X223440120Y-115564514D01*
X224536000Y-116660395D01*
X225631880Y-115564514D01*
X225512414Y-115280016D01*
X224841110Y-115025106D01*
X224123354Y-115046496D01*
X223559586Y-115280016D01*
X223440120Y-115564514D01*
X220813169Y-115564514D01*
X220559785Y-115310688D01*
X219896612Y-115035314D01*
X219178538Y-115034687D01*
X218514885Y-115308903D01*
X218006688Y-115816215D01*
X217731314Y-116479388D01*
X217730687Y-117197462D01*
X214502527Y-117197462D01*
X214713880Y-116881151D01*
X214823113Y-116332000D01*
X214713880Y-115782849D01*
X214402811Y-115317302D01*
X213937264Y-115006233D01*
X213388113Y-114897000D01*
X213331887Y-114897000D01*
X212782736Y-115006233D01*
X212317189Y-115317302D01*
X212006120Y-115782849D01*
X211896887Y-116332000D01*
X207187440Y-116332000D01*
X207187440Y-115532000D01*
X207143162Y-115296683D01*
X207004090Y-115080559D01*
X206791890Y-114935569D01*
X206540000Y-114884560D01*
X204940000Y-114884560D01*
X204704683Y-114928838D01*
X204488559Y-115067910D01*
X204343569Y-115280110D01*
X204292560Y-115532000D01*
X204292560Y-117132000D01*
X204336838Y-117367317D01*
X204475910Y-117583441D01*
X204688110Y-117728431D01*
X204843089Y-117759815D01*
X204697189Y-117857302D01*
X204386120Y-118322849D01*
X204276887Y-118872000D01*
X187373204Y-118872000D01*
X187463113Y-118420000D01*
X187353880Y-117870849D01*
X187042811Y-117405302D01*
X186660725Y-117150000D01*
X187042811Y-116894698D01*
X187353880Y-116429151D01*
X187463113Y-115880000D01*
X187449565Y-115811887D01*
X190815000Y-115811887D01*
X190815000Y-115868113D01*
X190924233Y-116417264D01*
X191235302Y-116882811D01*
X191700849Y-117193880D01*
X192250000Y-117303113D01*
X192799151Y-117193880D01*
X193264698Y-116882811D01*
X193575767Y-116417264D01*
X193685000Y-115868113D01*
X193685000Y-115811887D01*
X193575767Y-115262736D01*
X193264698Y-114797189D01*
X192799151Y-114486120D01*
X192250000Y-114376887D01*
X191700849Y-114486120D01*
X191235302Y-114797189D01*
X190924233Y-115262736D01*
X190815000Y-115811887D01*
X187449565Y-115811887D01*
X187353880Y-115330849D01*
X187042811Y-114865302D01*
X186577264Y-114554233D01*
X186028113Y-114445000D01*
X185971887Y-114445000D01*
X185422736Y-114554233D01*
X184957189Y-114865302D01*
X184646120Y-115330849D01*
X184536887Y-115880000D01*
X179843113Y-115880000D01*
X179733880Y-115330849D01*
X179422811Y-114865302D01*
X178957264Y-114554233D01*
X178408113Y-114445000D01*
X178351887Y-114445000D01*
X177802736Y-114554233D01*
X177337189Y-114865302D01*
X177026120Y-115330849D01*
X176916887Y-115880000D01*
X173023601Y-115880000D01*
X173138750Y-115602691D01*
X173139248Y-115031813D01*
X172921243Y-114504200D01*
X172517923Y-114100176D01*
X171990691Y-113881250D01*
X171419813Y-113880752D01*
X170892200Y-114098757D01*
X170488176Y-114502077D01*
X170269250Y-115029309D01*
X170268752Y-115600187D01*
X168605612Y-115600187D01*
X168469507Y-115270788D01*
X168194659Y-114995460D01*
X167835370Y-114846270D01*
X167446337Y-114845931D01*
X167086788Y-114994493D01*
X166811460Y-115269341D01*
X166662270Y-115628630D01*
X166661931Y-116017663D01*
X166435730Y-116017663D01*
X166463113Y-115880000D01*
X166353880Y-115330849D01*
X166042811Y-114865302D01*
X165577264Y-114554233D01*
X165028113Y-114445000D01*
X164971887Y-114445000D01*
X164422736Y-114554233D01*
X163957189Y-114865302D01*
X163646120Y-115330849D01*
X163536887Y-115880000D01*
X158843113Y-115880000D01*
X158733880Y-115330849D01*
X158422811Y-114865302D01*
X157957264Y-114554233D01*
X157408113Y-114445000D01*
X157351887Y-114445000D01*
X156802736Y-114554233D01*
X156337189Y-114865302D01*
X156026120Y-115330849D01*
X155916887Y-115880000D01*
X145292195Y-115880000D01*
X145434750Y-115536691D01*
X145435248Y-114965813D01*
X145217243Y-114438200D01*
X144813923Y-114034176D01*
X144286691Y-113815250D01*
X143715813Y-113814752D01*
X143188200Y-114032757D01*
X142784176Y-114436077D01*
X142565250Y-114963309D01*
X142564752Y-115534187D01*
X140918000Y-115534187D01*
X140918000Y-112470000D01*
X229922000Y-112470000D01*
X229922000Y-155754000D01*
M02*
