G04 #@! TF.FileFunction,Copper,L1,Top,Signal*
%FSLAX46Y46*%
G04 Gerber Fmt 4.6, Leading zero omitted, Abs format (unit mm)*
G04 Created by KiCad (PCBNEW 4.0.6) date 09/01/17 13:25:39*
%MOMM*%
%LPD*%
G01*
G04 APERTURE LIST*
%ADD10C,0.100000*%
%ADD11R,2.500000X2.500000*%
%ADD12C,2.500000*%
%ADD13C,1.600000*%
%ADD14O,1.600000X1.600000*%
%ADD15R,1.700000X1.700000*%
%ADD16O,1.700000X1.700000*%
%ADD17R,1.600000X1.600000*%
%ADD18C,2.340000*%
%ADD19C,0.685800*%
%ADD20C,0.152400*%
G04 APERTURE END LIST*
D10*
D11*
X221234000Y-148844000D03*
D12*
X226234000Y-148844000D03*
D11*
X210875000Y-148875000D03*
D12*
X215875000Y-148875000D03*
D13*
X151000000Y-135750000D03*
D14*
X158500000Y-135750000D03*
D13*
X199136000Y-134620000D03*
D14*
X199136000Y-127120000D03*
D15*
X219456000Y-130556000D03*
D16*
X219456000Y-128016000D03*
D13*
X171704000Y-115316000D03*
D14*
X171704000Y-125476000D03*
D13*
X151000000Y-129500000D03*
D14*
X161160000Y-129500000D03*
D13*
X165250000Y-129000000D03*
D14*
X165250000Y-139160000D03*
D13*
X144000000Y-115250000D03*
D14*
X144000000Y-125410000D03*
D13*
X144000000Y-129000000D03*
D14*
X144000000Y-139160000D03*
D13*
X192250000Y-126000000D03*
D14*
X192250000Y-115840000D03*
D13*
X192278000Y-129032000D03*
D14*
X192278000Y-139192000D03*
D13*
X171750000Y-129250000D03*
D14*
X181910000Y-129250000D03*
D13*
X186500000Y-129000000D03*
D14*
X186500000Y-139160000D03*
D13*
X225552000Y-134112000D03*
D14*
X225552000Y-123952000D03*
D17*
X205740000Y-116332000D03*
D14*
X213360000Y-134112000D03*
X205740000Y-118872000D03*
X213360000Y-131572000D03*
X205740000Y-121412000D03*
X213360000Y-129032000D03*
X205740000Y-123952000D03*
X213360000Y-126492000D03*
X205740000Y-126492000D03*
X213360000Y-123952000D03*
X205740000Y-129032000D03*
X213360000Y-121412000D03*
X205740000Y-131572000D03*
X213360000Y-118872000D03*
X205740000Y-134112000D03*
X213360000Y-116332000D03*
D17*
X186000000Y-123500000D03*
D14*
X178380000Y-115880000D03*
X186000000Y-120960000D03*
X178380000Y-118420000D03*
X186000000Y-118420000D03*
X178380000Y-120960000D03*
X186000000Y-115880000D03*
X178380000Y-123500000D03*
D17*
X165000000Y-123500000D03*
D14*
X157380000Y-115880000D03*
X165000000Y-120960000D03*
X157380000Y-118420000D03*
X165000000Y-118420000D03*
X157380000Y-120960000D03*
X165000000Y-115880000D03*
X157380000Y-123500000D03*
D11*
X196088000Y-148844000D03*
D12*
X201088000Y-148844000D03*
D11*
X163068000Y-148844000D03*
D12*
X168068000Y-148844000D03*
D11*
X152654000Y-148844000D03*
D12*
X157654000Y-148844000D03*
D18*
X219536000Y-116840000D03*
X222036000Y-119340000D03*
X224536000Y-116840000D03*
D19*
X168910000Y-117348000D03*
X167640000Y-115824000D03*
X179832000Y-142240000D03*
X183896000Y-142240000D03*
D20*
X180340000Y-115062000D02*
X181610000Y-113792000D01*
X210820000Y-113792000D02*
X213360000Y-116332000D01*
X181610000Y-113792000D02*
X210820000Y-113792000D01*
X157380000Y-120960000D02*
X157932000Y-120960000D01*
X157932000Y-120960000D02*
X159004000Y-119888000D01*
X159004000Y-119888000D02*
X159004000Y-114808000D01*
X159004000Y-114808000D02*
X160274000Y-113538000D01*
X160274000Y-113538000D02*
X178816000Y-113538000D01*
X178816000Y-113538000D02*
X180340000Y-115062000D01*
X178380000Y-120960000D02*
X178760000Y-120960000D01*
X178760000Y-120960000D02*
X180340000Y-119380000D01*
X180340000Y-119380000D02*
X180340000Y-115062000D01*
X210875000Y-148875000D02*
X210875000Y-142693000D01*
X221314000Y-115062000D02*
X219536000Y-116840000D01*
X226314000Y-115062000D02*
X221314000Y-115062000D01*
X228092000Y-116840000D02*
X226314000Y-115062000D01*
X228092000Y-134366000D02*
X228092000Y-116840000D01*
X226568000Y-135890000D02*
X228092000Y-134366000D01*
X217678000Y-135890000D02*
X226568000Y-135890000D01*
X210875000Y-142693000D02*
X217678000Y-135890000D01*
X213360000Y-116332000D02*
X219028000Y-116332000D01*
X219028000Y-116332000D02*
X219536000Y-116840000D01*
X187071000Y-145415000D02*
X187071000Y-148209000D01*
X222932000Y-152146000D02*
X226234000Y-148844000D01*
X191008000Y-152146000D02*
X222932000Y-152146000D01*
X187071000Y-148209000D02*
X191008000Y-152146000D01*
X165000000Y-115880000D02*
X167584000Y-115880000D01*
X179832000Y-131572000D02*
X179832000Y-131318000D01*
X170688000Y-131572000D02*
X179832000Y-131572000D01*
X168910000Y-129794000D02*
X170688000Y-131572000D01*
X168910000Y-117348000D02*
X168910000Y-129794000D01*
X167584000Y-115880000D02*
X167640000Y-115824000D01*
X192278000Y-139192000D02*
X192278000Y-140208000D01*
X192278000Y-140208000D02*
X187071000Y-145415000D01*
X182880000Y-119000000D02*
X186000000Y-115880000D01*
X182880000Y-125730000D02*
X182880000Y-119000000D01*
X179832000Y-128778000D02*
X182880000Y-125730000D01*
X179832000Y-140970000D02*
X179832000Y-131318000D01*
X179832000Y-131318000D02*
X179832000Y-128778000D01*
X179832000Y-142240000D02*
X179832000Y-140970000D01*
X187071000Y-145415000D02*
X183896000Y-142240000D01*
X151000000Y-135750000D02*
X151000000Y-129500000D01*
X151384000Y-118364000D02*
X151384000Y-127000000D01*
X151000000Y-127384000D02*
X151000000Y-129500000D01*
X151384000Y-127000000D02*
X151000000Y-127384000D01*
X157324000Y-118364000D02*
X151384000Y-118364000D01*
X148270000Y-115250000D02*
X151384000Y-118364000D01*
X148270000Y-115250000D02*
X144000000Y-115250000D01*
X157324000Y-118364000D02*
X157380000Y-118420000D01*
X165000000Y-120960000D02*
X165056000Y-120904000D01*
X165056000Y-120904000D02*
X167584000Y-120904000D01*
X167584000Y-120960000D02*
X167584000Y-120904000D01*
X167584000Y-120904000D02*
X167584000Y-117150000D01*
X169418000Y-115316000D02*
X171704000Y-115316000D01*
X167584000Y-117150000D02*
X169418000Y-115316000D01*
X167584000Y-120960000D02*
X167584000Y-130104000D01*
X163232000Y-131572000D02*
X161160000Y-129500000D01*
X166116000Y-131572000D02*
X163232000Y-131572000D01*
X167584000Y-130104000D02*
X166116000Y-131572000D01*
X161160000Y-129500000D02*
X161160000Y-134496000D01*
X161160000Y-134496000D02*
X159906000Y-135750000D01*
X159906000Y-135750000D02*
X158500000Y-135750000D01*
X199136000Y-134620000D02*
X201168000Y-134620000D01*
X204216000Y-131572000D02*
X205740000Y-131572000D01*
X201168000Y-134620000D02*
X204216000Y-131572000D01*
X199136000Y-127120000D02*
X201796000Y-127120000D01*
X203708000Y-129032000D02*
X205740000Y-129032000D01*
X201796000Y-127120000D02*
X203708000Y-129032000D01*
X219456000Y-128016000D02*
X224536000Y-128016000D01*
X225004000Y-119340000D02*
X222036000Y-119340000D01*
X227076000Y-121412000D02*
X225004000Y-119340000D01*
X227076000Y-125476000D02*
X227076000Y-121412000D01*
X224536000Y-128016000D02*
X227076000Y-125476000D01*
X178380000Y-118420000D02*
X176728000Y-118420000D01*
X174244000Y-125476000D02*
X171704000Y-125476000D01*
X175260000Y-124460000D02*
X174244000Y-125476000D01*
X175260000Y-119888000D02*
X175260000Y-124460000D01*
X176728000Y-118420000D02*
X175260000Y-119888000D01*
X171704000Y-125476000D02*
X171704000Y-129204000D01*
X171704000Y-129204000D02*
X171750000Y-129250000D01*
X165000000Y-118420000D02*
X164028000Y-118420000D01*
X164052000Y-129000000D02*
X165250000Y-129000000D01*
X163068000Y-128016000D02*
X164052000Y-129000000D01*
X163068000Y-119380000D02*
X163068000Y-128016000D01*
X164028000Y-118420000D02*
X163068000Y-119380000D01*
X192250000Y-126000000D02*
X192250000Y-129004000D01*
X192250000Y-129004000D02*
X192278000Y-129032000D01*
X192278000Y-129032000D02*
X192278000Y-129286000D01*
X192278000Y-129286000D02*
X190500000Y-131064000D01*
X190500000Y-131064000D02*
X183724000Y-131064000D01*
X183724000Y-131064000D02*
X181910000Y-129250000D01*
X186000000Y-120960000D02*
X187508000Y-120960000D01*
X190516000Y-126000000D02*
X192250000Y-126000000D01*
X188976000Y-124460000D02*
X190516000Y-126000000D01*
X188976000Y-122428000D02*
X188976000Y-124460000D01*
X187508000Y-120960000D02*
X188976000Y-122428000D01*
X186500000Y-129000000D02*
X184944000Y-129000000D01*
X183896000Y-120524000D02*
X186000000Y-118420000D01*
X183896000Y-127952000D02*
X183896000Y-120524000D01*
X184944000Y-129000000D02*
X183896000Y-127952000D01*
X213360000Y-129032000D02*
X214884000Y-129032000D01*
X217932000Y-123952000D02*
X225552000Y-123952000D01*
X216408000Y-125476000D02*
X217932000Y-123952000D01*
X216408000Y-127508000D02*
X216408000Y-125476000D01*
X214884000Y-129032000D02*
X216408000Y-127508000D01*
X213360000Y-134112000D02*
X213360000Y-138176000D01*
X196088000Y-143256000D02*
X196088000Y-148844000D01*
X199136000Y-140208000D02*
X196088000Y-143256000D01*
X211328000Y-140208000D02*
X199136000Y-140208000D01*
X213360000Y-138176000D02*
X211328000Y-140208000D01*
X219456000Y-130556000D02*
X219456000Y-132080000D01*
X217424000Y-134112000D02*
X213360000Y-134112000D01*
X219456000Y-132080000D02*
X217424000Y-134112000D01*
X152654000Y-148844000D02*
X151892000Y-148844000D01*
X151892000Y-148844000D02*
X147828000Y-144780000D01*
X147828000Y-144780000D02*
X147828000Y-130810000D01*
X147828000Y-130810000D02*
X144000000Y-126982000D01*
X144000000Y-125410000D02*
X144000000Y-126982000D01*
X144000000Y-126982000D02*
X144000000Y-129000000D01*
X198628000Y-120904000D02*
X198628000Y-123190000D01*
X166116000Y-145796000D02*
X163068000Y-148844000D01*
X179324000Y-145796000D02*
X166116000Y-145796000D01*
X180848000Y-144272000D02*
X179324000Y-145796000D01*
X180848000Y-135128000D02*
X180848000Y-144272000D01*
X182372000Y-133604000D02*
X180848000Y-135128000D01*
X192024000Y-133604000D02*
X182372000Y-133604000D01*
X195072000Y-130556000D02*
X192024000Y-133604000D01*
X195072000Y-126746000D02*
X195072000Y-130556000D01*
X198628000Y-123190000D02*
X195072000Y-126746000D01*
X192250000Y-115840000D02*
X195596000Y-115840000D01*
X201676000Y-123952000D02*
X205740000Y-123952000D01*
X198628000Y-120904000D02*
X201676000Y-123952000D01*
X198628000Y-118872000D02*
X198628000Y-120904000D01*
X195596000Y-115840000D02*
X198628000Y-118872000D01*
M02*
