M48
;DRILL file {KiCad 4.0.6} date 09/01/17 13:26:32
;FORMAT={2:4/ absolute / inch / suppress trailing zeros}
FMAT,2
INCH,LZ
T1C0.013
T2C0.031
T3C0.039
T4C0.051
%
G90
G05
M72
T1
X066Y-0456
X0665Y-0462
X0708Y-056
X0724Y-056
T2
X056693Y-045374
X056693Y-049374
X056693Y-050787
X056693Y-054787
X059449Y-050984
X059449Y-053445
X061961Y-045622
X061961Y-046622
X061961Y-047622
X061961Y-048622
X062402Y-053445
X063449Y-050984
X064961Y-045622
X064961Y-046622
X064961Y-047622
X064961Y-048622
X065059Y-050787
X065059Y-054787
X0676Y-0454
X0676Y-0494
X067618Y-050886
X070228Y-045622
X070228Y-046622
X070228Y-047622
X070228Y-048622
X071618Y-050886
X073228Y-045622
X073228Y-046622
X073228Y-047622
X073228Y-048622
X073425Y-050787
X073425Y-054787
X075689Y-045606
X075689Y-049606
X0757Y-0508
X0757Y-0548
X0784Y-050047
X0784Y-053
X081Y-0458
X081Y-0468
X081Y-0478
X081Y-0488
X081Y-0498
X081Y-0508
X081Y-0518
X081Y-0528
X084Y-0458
X084Y-0468
X084Y-0478
X084Y-0488
X084Y-0498
X084Y-0508
X084Y-0518
X084Y-0528
X0888Y-0488
X0888Y-0528
T3
X0864Y-0504
X0864Y-0514
T4
X0601Y-0586
X062069Y-0586
X0642Y-0586
X066169Y-0586
X0772Y-0586
X079169Y-0586
X083022Y-058612
X08499Y-058612
X086431Y-046
X0871Y-0586
X087416Y-046984
X0884Y-046
X089069Y-0586
T0
M30
