G04 #@! TF.FileFunction,Legend,Top*
%FSLAX46Y46*%
G04 Gerber Fmt 4.6, Leading zero omitted, Abs format (unit mm)*
G04 Created by KiCad (PCBNEW 4.0.6) date 09/01/17 13:25:39*
%MOMM*%
%LPD*%
G01*
G04 APERTURE LIST*
%ADD10C,0.100000*%
%ADD11C,0.150000*%
%ADD12C,0.120000*%
G04 APERTURE END LIST*
D10*
D11*
X223734000Y-152944000D02*
X223734000Y-153444000D01*
X228234000Y-148944000D02*
G75*
G03X228234000Y-148944000I-2000000J0D01*
G01*
X223234000Y-148944000D02*
G75*
G03X223234000Y-148944000I-2000000J0D01*
G01*
X218734000Y-151444000D02*
X228734000Y-151444000D01*
X218734000Y-146544000D02*
X228734000Y-146544000D01*
X218734000Y-152944000D02*
X228734000Y-152944000D01*
X218734000Y-153444000D02*
X228734000Y-153444000D01*
X228734000Y-153444000D02*
X228734000Y-143644000D01*
X228734000Y-143644000D02*
X218734000Y-143644000D01*
X218734000Y-143644000D02*
X218734000Y-153444000D01*
X213375000Y-152975000D02*
X213375000Y-153475000D01*
X217875000Y-148975000D02*
G75*
G03X217875000Y-148975000I-2000000J0D01*
G01*
X212875000Y-148975000D02*
G75*
G03X212875000Y-148975000I-2000000J0D01*
G01*
X208375000Y-151475000D02*
X218375000Y-151475000D01*
X208375000Y-146575000D02*
X218375000Y-146575000D01*
X208375000Y-152975000D02*
X218375000Y-152975000D01*
X208375000Y-153475000D02*
X218375000Y-153475000D01*
X218375000Y-153475000D02*
X218375000Y-143675000D01*
X218375000Y-143675000D02*
X208375000Y-143675000D01*
X208375000Y-143675000D02*
X208375000Y-153475000D01*
D12*
X152790000Y-134390000D02*
X152790000Y-137110000D01*
X152790000Y-137110000D02*
X156710000Y-137110000D01*
X156710000Y-137110000D02*
X156710000Y-134390000D01*
X156710000Y-134390000D02*
X152790000Y-134390000D01*
X151980000Y-135750000D02*
X152790000Y-135750000D01*
X157520000Y-135750000D02*
X156710000Y-135750000D01*
X197776000Y-132830000D02*
X200496000Y-132830000D01*
X200496000Y-132830000D02*
X200496000Y-128910000D01*
X200496000Y-128910000D02*
X197776000Y-128910000D01*
X197776000Y-128910000D02*
X197776000Y-132830000D01*
X199136000Y-133640000D02*
X199136000Y-132830000D01*
X199136000Y-128100000D02*
X199136000Y-128910000D01*
X220786000Y-131886000D02*
X220786000Y-126686000D01*
X220726000Y-131886000D02*
X220786000Y-131886000D01*
X218126000Y-126686000D02*
X220786000Y-126686000D01*
X220726000Y-131886000D02*
X220726000Y-129286000D01*
X220726000Y-129286000D02*
X218126000Y-129286000D01*
X218126000Y-129286000D02*
X218126000Y-126686000D01*
X219456000Y-131886000D02*
X218126000Y-131886000D01*
X218126000Y-131886000D02*
X218126000Y-130556000D01*
X173014000Y-117186000D02*
X170394000Y-117186000D01*
X170394000Y-117186000D02*
X170394000Y-123606000D01*
X170394000Y-123606000D02*
X173014000Y-123606000D01*
X173014000Y-123606000D02*
X173014000Y-117186000D01*
X171704000Y-116296000D02*
X171704000Y-117186000D01*
X171704000Y-124496000D02*
X171704000Y-123606000D01*
X152870000Y-128190000D02*
X152870000Y-130810000D01*
X152870000Y-130810000D02*
X159290000Y-130810000D01*
X159290000Y-130810000D02*
X159290000Y-128190000D01*
X159290000Y-128190000D02*
X152870000Y-128190000D01*
X151980000Y-129500000D02*
X152870000Y-129500000D01*
X160180000Y-129500000D02*
X159290000Y-129500000D01*
X166560000Y-130870000D02*
X163940000Y-130870000D01*
X163940000Y-130870000D02*
X163940000Y-137290000D01*
X163940000Y-137290000D02*
X166560000Y-137290000D01*
X166560000Y-137290000D02*
X166560000Y-130870000D01*
X165250000Y-129980000D02*
X165250000Y-130870000D01*
X165250000Y-138180000D02*
X165250000Y-137290000D01*
X145310000Y-117120000D02*
X142690000Y-117120000D01*
X142690000Y-117120000D02*
X142690000Y-123540000D01*
X142690000Y-123540000D02*
X145310000Y-123540000D01*
X145310000Y-123540000D02*
X145310000Y-117120000D01*
X144000000Y-116230000D02*
X144000000Y-117120000D01*
X144000000Y-124430000D02*
X144000000Y-123540000D01*
X145310000Y-130870000D02*
X142690000Y-130870000D01*
X142690000Y-130870000D02*
X142690000Y-137290000D01*
X142690000Y-137290000D02*
X145310000Y-137290000D01*
X145310000Y-137290000D02*
X145310000Y-130870000D01*
X144000000Y-129980000D02*
X144000000Y-130870000D01*
X144000000Y-138180000D02*
X144000000Y-137290000D01*
X190940000Y-124130000D02*
X193560000Y-124130000D01*
X193560000Y-124130000D02*
X193560000Y-117710000D01*
X193560000Y-117710000D02*
X190940000Y-117710000D01*
X190940000Y-117710000D02*
X190940000Y-124130000D01*
X192250000Y-125020000D02*
X192250000Y-124130000D01*
X192250000Y-116820000D02*
X192250000Y-117710000D01*
X193588000Y-130902000D02*
X190968000Y-130902000D01*
X190968000Y-130902000D02*
X190968000Y-137322000D01*
X190968000Y-137322000D02*
X193588000Y-137322000D01*
X193588000Y-137322000D02*
X193588000Y-130902000D01*
X192278000Y-130012000D02*
X192278000Y-130902000D01*
X192278000Y-138212000D02*
X192278000Y-137322000D01*
X173620000Y-127940000D02*
X173620000Y-130560000D01*
X173620000Y-130560000D02*
X180040000Y-130560000D01*
X180040000Y-130560000D02*
X180040000Y-127940000D01*
X180040000Y-127940000D02*
X173620000Y-127940000D01*
X172730000Y-129250000D02*
X173620000Y-129250000D01*
X180930000Y-129250000D02*
X180040000Y-129250000D01*
X187810000Y-130870000D02*
X185190000Y-130870000D01*
X185190000Y-130870000D02*
X185190000Y-137290000D01*
X185190000Y-137290000D02*
X187810000Y-137290000D01*
X187810000Y-137290000D02*
X187810000Y-130870000D01*
X186500000Y-129980000D02*
X186500000Y-130870000D01*
X186500000Y-138180000D02*
X186500000Y-137290000D01*
X224242000Y-132242000D02*
X226862000Y-132242000D01*
X226862000Y-132242000D02*
X226862000Y-125822000D01*
X226862000Y-125822000D02*
X224242000Y-125822000D01*
X224242000Y-125822000D02*
X224242000Y-132242000D01*
X225552000Y-133132000D02*
X225552000Y-132242000D01*
X225552000Y-124932000D02*
X225552000Y-125822000D01*
X208550000Y-114942000D02*
X206780000Y-114942000D01*
X206780000Y-114942000D02*
X206780000Y-135502000D01*
X206780000Y-135502000D02*
X212320000Y-135502000D01*
X212320000Y-135502000D02*
X212320000Y-114942000D01*
X212320000Y-114942000D02*
X210550000Y-114942000D01*
X204350000Y-114942000D02*
X204350000Y-135502000D01*
X204350000Y-135502000D02*
X214750000Y-135502000D01*
X214750000Y-135502000D02*
X214750000Y-114942000D01*
X214750000Y-114942000D02*
X204350000Y-114942000D01*
X210550000Y-114942000D02*
G75*
G02X208550000Y-114942000I-1000000J0D01*
G01*
X183190000Y-124890000D02*
X184960000Y-124890000D01*
X184960000Y-124890000D02*
X184960000Y-114490000D01*
X184960000Y-114490000D02*
X179420000Y-114490000D01*
X179420000Y-114490000D02*
X179420000Y-124890000D01*
X179420000Y-124890000D02*
X181190000Y-124890000D01*
X187390000Y-124890000D02*
X187390000Y-114490000D01*
X187390000Y-114490000D02*
X176990000Y-114490000D01*
X176990000Y-114490000D02*
X176990000Y-124890000D01*
X176990000Y-124890000D02*
X187390000Y-124890000D01*
X181190000Y-124890000D02*
G75*
G02X183190000Y-124890000I1000000J0D01*
G01*
X162190000Y-124890000D02*
X163960000Y-124890000D01*
X163960000Y-124890000D02*
X163960000Y-114490000D01*
X163960000Y-114490000D02*
X158420000Y-114490000D01*
X158420000Y-114490000D02*
X158420000Y-124890000D01*
X158420000Y-124890000D02*
X160190000Y-124890000D01*
X166390000Y-124890000D02*
X166390000Y-114490000D01*
X166390000Y-114490000D02*
X155990000Y-114490000D01*
X155990000Y-114490000D02*
X155990000Y-124890000D01*
X155990000Y-124890000D02*
X166390000Y-124890000D01*
X160190000Y-124890000D02*
G75*
G02X162190000Y-124890000I1000000J0D01*
G01*
D11*
X198588000Y-152944000D02*
X198588000Y-153444000D01*
X203088000Y-148944000D02*
G75*
G03X203088000Y-148944000I-2000000J0D01*
G01*
X198088000Y-148944000D02*
G75*
G03X198088000Y-148944000I-2000000J0D01*
G01*
X193588000Y-151444000D02*
X203588000Y-151444000D01*
X193588000Y-146544000D02*
X203588000Y-146544000D01*
X193588000Y-152944000D02*
X203588000Y-152944000D01*
X193588000Y-153444000D02*
X203588000Y-153444000D01*
X203588000Y-153444000D02*
X203588000Y-143644000D01*
X203588000Y-143644000D02*
X193588000Y-143644000D01*
X193588000Y-143644000D02*
X193588000Y-153444000D01*
X165568000Y-152944000D02*
X165568000Y-153444000D01*
X170068000Y-148944000D02*
G75*
G03X170068000Y-148944000I-2000000J0D01*
G01*
X165068000Y-148944000D02*
G75*
G03X165068000Y-148944000I-2000000J0D01*
G01*
X160568000Y-151444000D02*
X170568000Y-151444000D01*
X160568000Y-146544000D02*
X170568000Y-146544000D01*
X160568000Y-152944000D02*
X170568000Y-152944000D01*
X160568000Y-153444000D02*
X170568000Y-153444000D01*
X170568000Y-153444000D02*
X170568000Y-143644000D01*
X170568000Y-143644000D02*
X160568000Y-143644000D01*
X160568000Y-143644000D02*
X160568000Y-153444000D01*
X155154000Y-152944000D02*
X155154000Y-153444000D01*
X159654000Y-148944000D02*
G75*
G03X159654000Y-148944000I-2000000J0D01*
G01*
X154654000Y-148944000D02*
G75*
G03X154654000Y-148944000I-2000000J0D01*
G01*
X150154000Y-151444000D02*
X160154000Y-151444000D01*
X150154000Y-146544000D02*
X160154000Y-146544000D01*
X150154000Y-152944000D02*
X160154000Y-152944000D01*
X150154000Y-153444000D02*
X160154000Y-153444000D01*
X160154000Y-153444000D02*
X160154000Y-143644000D01*
X160154000Y-143644000D02*
X150154000Y-143644000D01*
X150154000Y-143644000D02*
X150154000Y-153444000D01*
D12*
X226997000Y-116779000D02*
X226997000Y-121700000D01*
X217076000Y-116779000D02*
X217076000Y-121700000D01*
X226997000Y-121700000D02*
X217076000Y-121700000D01*
X218171000Y-116779000D02*
X217076000Y-116779000D01*
X226997000Y-116779000D02*
X225901000Y-116779000D01*
X223171000Y-116779000D02*
X220901000Y-116779000D01*
X223596000Y-118025000D02*
X223596000Y-121700000D01*
X220475000Y-118025000D02*
X220475000Y-121700000D01*
X223171000Y-116779000D02*
X220901000Y-116779000D01*
X223596000Y-121700000D02*
X220475000Y-121700000D01*
D11*
X222948286Y-154672571D02*
X223091143Y-154720190D01*
X223138762Y-154767810D01*
X223186381Y-154863048D01*
X223186381Y-155005905D01*
X223138762Y-155101143D01*
X223091143Y-155148762D01*
X222995905Y-155196381D01*
X222614952Y-155196381D01*
X222614952Y-154196381D01*
X222948286Y-154196381D01*
X223043524Y-154244000D01*
X223091143Y-154291619D01*
X223138762Y-154386857D01*
X223138762Y-154482095D01*
X223091143Y-154577333D01*
X223043524Y-154624952D01*
X222948286Y-154672571D01*
X222614952Y-154672571D01*
X223472095Y-154196381D02*
X224043524Y-154196381D01*
X223757809Y-155196381D02*
X223757809Y-154196381D01*
X224329238Y-154291619D02*
X224376857Y-154244000D01*
X224472095Y-154196381D01*
X224710191Y-154196381D01*
X224805429Y-154244000D01*
X224853048Y-154291619D01*
X224900667Y-154386857D01*
X224900667Y-154482095D01*
X224853048Y-154624952D01*
X224281619Y-155196381D01*
X224900667Y-155196381D01*
X212589286Y-154703571D02*
X212732143Y-154751190D01*
X212779762Y-154798810D01*
X212827381Y-154894048D01*
X212827381Y-155036905D01*
X212779762Y-155132143D01*
X212732143Y-155179762D01*
X212636905Y-155227381D01*
X212255952Y-155227381D01*
X212255952Y-154227381D01*
X212589286Y-154227381D01*
X212684524Y-154275000D01*
X212732143Y-154322619D01*
X212779762Y-154417857D01*
X212779762Y-154513095D01*
X212732143Y-154608333D01*
X212684524Y-154655952D01*
X212589286Y-154703571D01*
X212255952Y-154703571D01*
X213113095Y-154227381D02*
X213684524Y-154227381D01*
X213398809Y-155227381D02*
X213398809Y-154227381D01*
X214541667Y-155227381D02*
X213970238Y-155227381D01*
X214255952Y-155227381D02*
X214255952Y-154227381D01*
X214160714Y-154370238D01*
X214065476Y-154465476D01*
X213970238Y-154513095D01*
X154345239Y-133747143D02*
X154297620Y-133794762D01*
X154154763Y-133842381D01*
X154059525Y-133842381D01*
X153916667Y-133794762D01*
X153821429Y-133699524D01*
X153773810Y-133604286D01*
X153726191Y-133413810D01*
X153726191Y-133270952D01*
X153773810Y-133080476D01*
X153821429Y-132985238D01*
X153916667Y-132890000D01*
X154059525Y-132842381D01*
X154154763Y-132842381D01*
X154297620Y-132890000D01*
X154345239Y-132937619D01*
X154773810Y-133842381D02*
X154773810Y-133175714D01*
X154773810Y-132842381D02*
X154726191Y-132890000D01*
X154773810Y-132937619D01*
X154821429Y-132890000D01*
X154773810Y-132842381D01*
X154773810Y-132937619D01*
X155773810Y-133842381D02*
X155202381Y-133842381D01*
X155488095Y-133842381D02*
X155488095Y-132842381D01*
X155392857Y-132985238D01*
X155297619Y-133080476D01*
X155202381Y-133128095D01*
X197133143Y-132298571D02*
X197180762Y-132346190D01*
X197228381Y-132489047D01*
X197228381Y-132584285D01*
X197180762Y-132727143D01*
X197085524Y-132822381D01*
X196990286Y-132870000D01*
X196799810Y-132917619D01*
X196656952Y-132917619D01*
X196466476Y-132870000D01*
X196371238Y-132822381D01*
X196276000Y-132727143D01*
X196228381Y-132584285D01*
X196228381Y-132489047D01*
X196276000Y-132346190D01*
X196323619Y-132298571D01*
X196561714Y-131965238D02*
X197228381Y-131727143D01*
X196561714Y-131489047D01*
X197180762Y-130679523D02*
X197228381Y-130774761D01*
X197228381Y-130965238D01*
X197180762Y-131060476D01*
X197133143Y-131108095D01*
X197037905Y-131155714D01*
X196752190Y-131155714D01*
X196656952Y-131108095D01*
X196609333Y-131060476D01*
X196561714Y-130965238D01*
X196561714Y-130774761D01*
X196609333Y-130679523D01*
X197228381Y-130108095D02*
X197180762Y-130203333D01*
X197133143Y-130250952D01*
X197037905Y-130298571D01*
X196752190Y-130298571D01*
X196656952Y-130250952D01*
X196609333Y-130203333D01*
X196561714Y-130108095D01*
X196561714Y-129965237D01*
X196609333Y-129869999D01*
X196656952Y-129822380D01*
X196752190Y-129774761D01*
X197037905Y-129774761D01*
X197133143Y-129822380D01*
X197180762Y-129869999D01*
X197228381Y-129965237D01*
X197228381Y-130108095D01*
X197228381Y-128822380D02*
X197228381Y-129393809D01*
X197228381Y-129108095D02*
X196228381Y-129108095D01*
X196371238Y-129203333D01*
X196466476Y-129298571D01*
X196514095Y-129393809D01*
X216578381Y-130119333D02*
X217292667Y-130119333D01*
X217435524Y-130166953D01*
X217530762Y-130262191D01*
X217578381Y-130405048D01*
X217578381Y-130500286D01*
X217578381Y-129643143D02*
X216578381Y-129643143D01*
X216578381Y-129262190D01*
X216626000Y-129166952D01*
X216673619Y-129119333D01*
X216768857Y-129071714D01*
X216911714Y-129071714D01*
X217006952Y-129119333D01*
X217054571Y-129166952D01*
X217102190Y-129262190D01*
X217102190Y-129643143D01*
X217578381Y-128119333D02*
X217578381Y-128690762D01*
X217578381Y-128405048D02*
X216578381Y-128405048D01*
X216721238Y-128500286D01*
X216816476Y-128595524D01*
X216864095Y-128690762D01*
X174466381Y-120800761D02*
X173990190Y-121134095D01*
X174466381Y-121372190D02*
X173466381Y-121372190D01*
X173466381Y-120991237D01*
X173514000Y-120895999D01*
X173561619Y-120848380D01*
X173656857Y-120800761D01*
X173799714Y-120800761D01*
X173894952Y-120848380D01*
X173942571Y-120895999D01*
X173990190Y-120991237D01*
X173990190Y-121372190D01*
X174466381Y-120372190D02*
X173799714Y-120372190D01*
X173466381Y-120372190D02*
X173514000Y-120419809D01*
X173561619Y-120372190D01*
X173514000Y-120324571D01*
X173466381Y-120372190D01*
X173561619Y-120372190D01*
X174466381Y-119372190D02*
X174466381Y-119943619D01*
X174466381Y-119657905D02*
X173466381Y-119657905D01*
X173609238Y-119753143D01*
X173704476Y-119848381D01*
X173752095Y-119943619D01*
X155675239Y-127642381D02*
X155341905Y-127166190D01*
X155103810Y-127642381D02*
X155103810Y-126642381D01*
X155484763Y-126642381D01*
X155580001Y-126690000D01*
X155627620Y-126737619D01*
X155675239Y-126832857D01*
X155675239Y-126975714D01*
X155627620Y-127070952D01*
X155580001Y-127118571D01*
X155484763Y-127166190D01*
X155103810Y-127166190D01*
X156103810Y-127642381D02*
X156103810Y-126975714D01*
X156103810Y-126642381D02*
X156056191Y-126690000D01*
X156103810Y-126737619D01*
X156151429Y-126690000D01*
X156103810Y-126642381D01*
X156103810Y-126737619D01*
X156532381Y-126737619D02*
X156580000Y-126690000D01*
X156675238Y-126642381D01*
X156913334Y-126642381D01*
X157008572Y-126690000D01*
X157056191Y-126737619D01*
X157103810Y-126832857D01*
X157103810Y-126928095D01*
X157056191Y-127070952D01*
X156484762Y-127642381D01*
X157103810Y-127642381D01*
X168012381Y-134484761D02*
X167536190Y-134818095D01*
X168012381Y-135056190D02*
X167012381Y-135056190D01*
X167012381Y-134675237D01*
X167060000Y-134579999D01*
X167107619Y-134532380D01*
X167202857Y-134484761D01*
X167345714Y-134484761D01*
X167440952Y-134532380D01*
X167488571Y-134579999D01*
X167536190Y-134675237D01*
X167536190Y-135056190D01*
X168012381Y-134056190D02*
X167345714Y-134056190D01*
X167012381Y-134056190D02*
X167060000Y-134103809D01*
X167107619Y-134056190D01*
X167060000Y-134008571D01*
X167012381Y-134056190D01*
X167107619Y-134056190D01*
X167012381Y-133675238D02*
X167012381Y-133056190D01*
X167393333Y-133389524D01*
X167393333Y-133246666D01*
X167440952Y-133151428D01*
X167488571Y-133103809D01*
X167583810Y-133056190D01*
X167821905Y-133056190D01*
X167917143Y-133103809D01*
X167964762Y-133151428D01*
X168012381Y-133246666D01*
X168012381Y-133532381D01*
X167964762Y-133627619D01*
X167917143Y-133675238D01*
X146762381Y-120806190D02*
X146286190Y-121139524D01*
X146762381Y-121377619D02*
X145762381Y-121377619D01*
X145762381Y-120996666D01*
X145810000Y-120901428D01*
X145857619Y-120853809D01*
X145952857Y-120806190D01*
X146095714Y-120806190D01*
X146190952Y-120853809D01*
X146238571Y-120901428D01*
X146286190Y-120996666D01*
X146286190Y-121377619D01*
X146762381Y-120377619D02*
X146095714Y-120377619D01*
X146286190Y-120377619D02*
X146190952Y-120330000D01*
X146143333Y-120282381D01*
X146095714Y-120187143D01*
X146095714Y-120091904D01*
X146762381Y-119234761D02*
X146762381Y-119806190D01*
X146762381Y-119520476D02*
X145762381Y-119520476D01*
X145905238Y-119615714D01*
X146000476Y-119710952D01*
X146048095Y-119806190D01*
X146762381Y-134556190D02*
X146286190Y-134889524D01*
X146762381Y-135127619D02*
X145762381Y-135127619D01*
X145762381Y-134746666D01*
X145810000Y-134651428D01*
X145857619Y-134603809D01*
X145952857Y-134556190D01*
X146095714Y-134556190D01*
X146190952Y-134603809D01*
X146238571Y-134651428D01*
X146286190Y-134746666D01*
X146286190Y-135127619D01*
X146762381Y-134127619D02*
X146095714Y-134127619D01*
X146286190Y-134127619D02*
X146190952Y-134080000D01*
X146143333Y-134032381D01*
X146095714Y-133937143D01*
X146095714Y-133841904D01*
X145857619Y-133556190D02*
X145810000Y-133508571D01*
X145762381Y-133413333D01*
X145762381Y-133175237D01*
X145810000Y-133079999D01*
X145857619Y-133032380D01*
X145952857Y-132984761D01*
X146048095Y-132984761D01*
X146190952Y-133032380D01*
X146762381Y-133603809D01*
X146762381Y-132984761D01*
X190392381Y-121491428D02*
X189916190Y-121824762D01*
X190392381Y-122062857D02*
X189392381Y-122062857D01*
X189392381Y-121681904D01*
X189440000Y-121586666D01*
X189487619Y-121539047D01*
X189582857Y-121491428D01*
X189725714Y-121491428D01*
X189820952Y-121539047D01*
X189868571Y-121586666D01*
X189916190Y-121681904D01*
X189916190Y-122062857D01*
X190344762Y-121110476D02*
X190392381Y-121015238D01*
X190392381Y-120824762D01*
X190344762Y-120729523D01*
X190249524Y-120681904D01*
X190201905Y-120681904D01*
X190106667Y-120729523D01*
X190059048Y-120824762D01*
X190059048Y-120967619D01*
X190011429Y-121062857D01*
X189916190Y-121110476D01*
X189868571Y-121110476D01*
X189773333Y-121062857D01*
X189725714Y-120967619D01*
X189725714Y-120824762D01*
X189773333Y-120729523D01*
X190392381Y-119729523D02*
X190392381Y-120300952D01*
X190392381Y-120015238D02*
X189392381Y-120015238D01*
X189535238Y-120110476D01*
X189630476Y-120205714D01*
X189678095Y-120300952D01*
X195040381Y-134683428D02*
X194564190Y-135016762D01*
X195040381Y-135254857D02*
X194040381Y-135254857D01*
X194040381Y-134873904D01*
X194088000Y-134778666D01*
X194135619Y-134731047D01*
X194230857Y-134683428D01*
X194373714Y-134683428D01*
X194468952Y-134731047D01*
X194516571Y-134778666D01*
X194564190Y-134873904D01*
X194564190Y-135254857D01*
X194992762Y-134302476D02*
X195040381Y-134207238D01*
X195040381Y-134016762D01*
X194992762Y-133921523D01*
X194897524Y-133873904D01*
X194849905Y-133873904D01*
X194754667Y-133921523D01*
X194707048Y-134016762D01*
X194707048Y-134159619D01*
X194659429Y-134254857D01*
X194564190Y-134302476D01*
X194516571Y-134302476D01*
X194421333Y-134254857D01*
X194373714Y-134159619D01*
X194373714Y-134016762D01*
X194421333Y-133921523D01*
X194135619Y-133492952D02*
X194088000Y-133445333D01*
X194040381Y-133350095D01*
X194040381Y-133111999D01*
X194088000Y-133016761D01*
X194135619Y-132969142D01*
X194230857Y-132921523D01*
X194326095Y-132921523D01*
X194468952Y-132969142D01*
X195040381Y-133540571D01*
X195040381Y-132921523D01*
X176258572Y-127392381D02*
X175925238Y-126916190D01*
X175687143Y-127392381D02*
X175687143Y-126392381D01*
X176068096Y-126392381D01*
X176163334Y-126440000D01*
X176210953Y-126487619D01*
X176258572Y-126582857D01*
X176258572Y-126725714D01*
X176210953Y-126820952D01*
X176163334Y-126868571D01*
X176068096Y-126916190D01*
X175687143Y-126916190D01*
X176639524Y-127344762D02*
X176734762Y-127392381D01*
X176925238Y-127392381D01*
X177020477Y-127344762D01*
X177068096Y-127249524D01*
X177068096Y-127201905D01*
X177020477Y-127106667D01*
X176925238Y-127059048D01*
X176782381Y-127059048D01*
X176687143Y-127011429D01*
X176639524Y-126916190D01*
X176639524Y-126868571D01*
X176687143Y-126773333D01*
X176782381Y-126725714D01*
X176925238Y-126725714D01*
X177020477Y-126773333D01*
X177401429Y-126392381D02*
X178020477Y-126392381D01*
X177687143Y-126773333D01*
X177830001Y-126773333D01*
X177925239Y-126820952D01*
X177972858Y-126868571D01*
X178020477Y-126963810D01*
X178020477Y-127201905D01*
X177972858Y-127297143D01*
X177925239Y-127344762D01*
X177830001Y-127392381D01*
X177544286Y-127392381D01*
X177449048Y-127344762D01*
X177401429Y-127297143D01*
X189174381Y-134683428D02*
X188698190Y-135016762D01*
X189174381Y-135254857D02*
X188174381Y-135254857D01*
X188174381Y-134873904D01*
X188222000Y-134778666D01*
X188269619Y-134731047D01*
X188364857Y-134683428D01*
X188507714Y-134683428D01*
X188602952Y-134731047D01*
X188650571Y-134778666D01*
X188698190Y-134873904D01*
X188698190Y-135254857D01*
X189126762Y-134302476D02*
X189174381Y-134207238D01*
X189174381Y-134016762D01*
X189126762Y-133921523D01*
X189031524Y-133873904D01*
X188983905Y-133873904D01*
X188888667Y-133921523D01*
X188841048Y-134016762D01*
X188841048Y-134159619D01*
X188793429Y-134254857D01*
X188698190Y-134302476D01*
X188650571Y-134302476D01*
X188555333Y-134254857D01*
X188507714Y-134159619D01*
X188507714Y-134016762D01*
X188555333Y-133921523D01*
X188507714Y-133016761D02*
X189174381Y-133016761D01*
X188126762Y-133254857D02*
X188841048Y-133492952D01*
X188841048Y-132873904D01*
X223694381Y-130460571D02*
X223218190Y-130793905D01*
X223694381Y-131032000D02*
X222694381Y-131032000D01*
X222694381Y-130651047D01*
X222742000Y-130555809D01*
X222789619Y-130508190D01*
X222884857Y-130460571D01*
X223027714Y-130460571D01*
X223122952Y-130508190D01*
X223170571Y-130555809D01*
X223218190Y-130651047D01*
X223218190Y-131032000D01*
X223027714Y-130127238D02*
X223694381Y-129889143D01*
X223027714Y-129651047D01*
X223646762Y-128841523D02*
X223694381Y-128936761D01*
X223694381Y-129127238D01*
X223646762Y-129222476D01*
X223599143Y-129270095D01*
X223503905Y-129317714D01*
X223218190Y-129317714D01*
X223122952Y-129270095D01*
X223075333Y-129222476D01*
X223027714Y-129127238D01*
X223027714Y-128936761D01*
X223075333Y-128841523D01*
X223694381Y-128270095D02*
X223646762Y-128365333D01*
X223599143Y-128412952D01*
X223503905Y-128460571D01*
X223218190Y-128460571D01*
X223122952Y-128412952D01*
X223075333Y-128365333D01*
X223027714Y-128270095D01*
X223027714Y-128127237D01*
X223075333Y-128031999D01*
X223122952Y-127984380D01*
X223218190Y-127936761D01*
X223503905Y-127936761D01*
X223599143Y-127984380D01*
X223646762Y-128031999D01*
X223694381Y-128127237D01*
X223694381Y-128270095D01*
X223694381Y-126984380D02*
X223694381Y-127555809D01*
X223694381Y-127270095D02*
X222694381Y-127270095D01*
X222837238Y-127365333D01*
X222932476Y-127460571D01*
X222980095Y-127555809D01*
X208788095Y-113394381D02*
X208788095Y-114203905D01*
X208835714Y-114299143D01*
X208883333Y-114346762D01*
X208978571Y-114394381D01*
X209169048Y-114394381D01*
X209264286Y-114346762D01*
X209311905Y-114299143D01*
X209359524Y-114203905D01*
X209359524Y-113394381D01*
X210359524Y-114394381D02*
X209788095Y-114394381D01*
X210073809Y-114394381D02*
X210073809Y-113394381D01*
X209978571Y-113537238D01*
X209883333Y-113632476D01*
X209788095Y-113680095D01*
X181428095Y-125342381D02*
X181428095Y-126151905D01*
X181475714Y-126247143D01*
X181523333Y-126294762D01*
X181618571Y-126342381D01*
X181809048Y-126342381D01*
X181904286Y-126294762D01*
X181951905Y-126247143D01*
X181999524Y-126151905D01*
X181999524Y-125342381D01*
X182428095Y-125437619D02*
X182475714Y-125390000D01*
X182570952Y-125342381D01*
X182809048Y-125342381D01*
X182904286Y-125390000D01*
X182951905Y-125437619D01*
X182999524Y-125532857D01*
X182999524Y-125628095D01*
X182951905Y-125770952D01*
X182380476Y-126342381D01*
X182999524Y-126342381D01*
X160428095Y-125342381D02*
X160428095Y-126151905D01*
X160475714Y-126247143D01*
X160523333Y-126294762D01*
X160618571Y-126342381D01*
X160809048Y-126342381D01*
X160904286Y-126294762D01*
X160951905Y-126247143D01*
X160999524Y-126151905D01*
X160999524Y-125342381D01*
X161380476Y-125342381D02*
X161999524Y-125342381D01*
X161666190Y-125723333D01*
X161809048Y-125723333D01*
X161904286Y-125770952D01*
X161951905Y-125818571D01*
X161999524Y-125913810D01*
X161999524Y-126151905D01*
X161951905Y-126247143D01*
X161904286Y-126294762D01*
X161809048Y-126342381D01*
X161523333Y-126342381D01*
X161428095Y-126294762D01*
X161380476Y-126247143D01*
X198254667Y-154196381D02*
X198254667Y-154910667D01*
X198207047Y-155053524D01*
X198111809Y-155148762D01*
X197968952Y-155196381D01*
X197873714Y-155196381D01*
X199254667Y-155196381D02*
X198683238Y-155196381D01*
X198968952Y-155196381D02*
X198968952Y-154196381D01*
X198873714Y-154339238D01*
X198778476Y-154434476D01*
X198683238Y-154482095D01*
X165234667Y-154196381D02*
X165234667Y-154910667D01*
X165187047Y-155053524D01*
X165091809Y-155148762D01*
X164948952Y-155196381D01*
X164853714Y-155196381D01*
X165663238Y-154291619D02*
X165710857Y-154244000D01*
X165806095Y-154196381D01*
X166044191Y-154196381D01*
X166139429Y-154244000D01*
X166187048Y-154291619D01*
X166234667Y-154386857D01*
X166234667Y-154482095D01*
X166187048Y-154624952D01*
X165615619Y-155196381D01*
X166234667Y-155196381D01*
X154820667Y-154196381D02*
X154820667Y-154910667D01*
X154773047Y-155053524D01*
X154677809Y-155148762D01*
X154534952Y-155196381D01*
X154439714Y-155196381D01*
X155201619Y-154196381D02*
X155820667Y-154196381D01*
X155487333Y-154577333D01*
X155630191Y-154577333D01*
X155725429Y-154624952D01*
X155773048Y-154672571D01*
X155820667Y-154767810D01*
X155820667Y-155005905D01*
X155773048Y-155101143D01*
X155725429Y-155148762D01*
X155630191Y-155196381D01*
X155344476Y-155196381D01*
X155249238Y-155148762D01*
X155201619Y-155101143D01*
X228638381Y-118840000D02*
X227638381Y-118840000D01*
X227638381Y-118459047D01*
X227686000Y-118363809D01*
X227733619Y-118316190D01*
X227828857Y-118268571D01*
X227971714Y-118268571D01*
X228066952Y-118316190D01*
X228114571Y-118363809D01*
X228162190Y-118459047D01*
X228162190Y-118840000D01*
X227971714Y-117935238D02*
X228638381Y-117697143D01*
X227971714Y-117459047D01*
X228590762Y-116649523D02*
X228638381Y-116744761D01*
X228638381Y-116935238D01*
X228590762Y-117030476D01*
X228543143Y-117078095D01*
X228447905Y-117125714D01*
X228162190Y-117125714D01*
X228066952Y-117078095D01*
X228019333Y-117030476D01*
X227971714Y-116935238D01*
X227971714Y-116744761D01*
X228019333Y-116649523D01*
X228638381Y-116078095D02*
X228590762Y-116173333D01*
X228543143Y-116220952D01*
X228447905Y-116268571D01*
X228162190Y-116268571D01*
X228066952Y-116220952D01*
X228019333Y-116173333D01*
X227971714Y-116078095D01*
X227971714Y-115935237D01*
X228019333Y-115839999D01*
X228066952Y-115792380D01*
X228162190Y-115744761D01*
X228447905Y-115744761D01*
X228543143Y-115792380D01*
X228590762Y-115839999D01*
X228638381Y-115935237D01*
X228638381Y-116078095D01*
X228638381Y-114792380D02*
X228638381Y-115363809D01*
X228638381Y-115078095D02*
X227638381Y-115078095D01*
X227781238Y-115173333D01*
X227876476Y-115268571D01*
X227924095Y-115363809D01*
M02*
